<?xml version="1.0" encoding="UTF-8" standalone="no"?>
<!-- Created with Inkscape (http://www.inkscape.org/) -->

<svg
   xmlns:dc="http://purl.org/dc/elements/1.1/"
   xmlns:cc="http://creativecommons.org/ns#"
   xmlns:rdf="http://www.w3.org/1999/02/22-rdf-syntax-ns#"
   xmlns:svg="http://www.w3.org/2000/svg"
   xmlns="http://www.w3.org/2000/svg"
   xmlns:sodipodi="http://sodipodi.sourceforge.net/DTD/sodipodi-0.dtd"
   xmlns:inkscape="http://www.inkscape.org/namespaces/inkscape"
   width="744.09448819"
   height="1052.3622047"
   id="svg2"
   version="1.1"
   inkscape:version="0.48.4 r9939"
   sodipodi:docname="rdfdb-traffic-report.svg">
  <defs
     id="defs4" />
  <sodipodi:namedview
     id="base"
     pagecolor="#ffffff"
     bordercolor="#666666"
     borderopacity="1.0"
     inkscape:pageopacity="0.0"
     inkscape:pageshadow="2"
     inkscape:zoom="0.7"
     inkscape:cx="521.05467"
     inkscape:cy="533.76124"
     inkscape:document-units="px"
     inkscape:current-layer="layer1"
     showgrid="false"
     inkscape:window-width="1279"
     inkscape:window-height="950"
     inkscape:window-x="1"
     inkscape:window-y="52"
     inkscape:window-maximized="0" />
  <metadata
     id="metadata7">
    <rdf:RDF>
      <cc:Work
         rdf:about="">
        <dc:format>image/svg+xml</dc:format>
        <dc:type
           rdf:resource="http://purl.org/dc/dcmitype/StillImage" />
        <dc:title></dc:title>
      </cc:Work>
    </rdf:RDF>
  </metadata>
  <g
     inkscape:label="Layer 1"
     inkscape:groupmode="layer"
     id="layer1">
    <text
       xml:space="preserve"
       style="font-size:20px;font-style:normal;font-variant:normal;font-weight:normal;font-stretch:normal;text-align:start;line-height:125%;letter-spacing:0px;word-spacing:0px;writing-mode:lr-tb;text-anchor:start;fill:#000000;fill-opacity:1;stroke:none;font-family:Sans;-inkscape-font-specification:Sans"
       x="37.142857"
       y="33.790752"
       id="text2985"
       sodipodi:linespacing="125%"><tspan
         sodipodi:role="line"
         id="tspan2987"
         x="37.142857"
         y="33.790752">rdfdb traffic report</tspan></text>
    <text
       xml:space="preserve"
       style="font-size:20px;font-style:normal;font-variant:normal;font-weight:normal;font-stretch:normal;text-align:start;line-height:125%;letter-spacing:0px;word-spacing:0px;writing-mode:lr-tb;text-anchor:start;fill:#000000;fill-opacity:1;stroke:none;font-family:Sans;-inkscape-font-specification:Sans"
       x="280"
       y="231.79076"
       id="text2989"
       sodipodi:linespacing="125%"><tspan
         sodipodi:role="line"
         id="tspan2991"
         x="280"
         y="231.79076">connected clients:</tspan></text>
    <text
       xml:space="preserve"
       style="font-size:18.76403427px;font-style:normal;font-variant:normal;font-weight:normal;font-stretch:normal;text-align:start;line-height:300%;letter-spacing:0px;word-spacing:0px;writing-mode:lr-tb;text-anchor:start;fill:#000000;fill-opacity:1;stroke:none;font-family:Sans;-inkscape-font-specification:Sans"
       x="294.75092"
       y="246.95284"
       id="text2993"
       sodipodi:linespacing="300%"
       transform="scale(0.93820177,1.0658688)"><tspan
         sodipodi:role="line"
         id="tspan2995"
         x="294.75092"
         y="246.95284">curvecalc</tspan><tspan
         sodipodi:role="line"
         x="294.75092"
         y="303.24493"
         id="tspan2997">ascoltami</tspan><tspan
         sodipodi:role="line"
         x="294.75092"
         y="359.53705"
         id="tspan2999">subcomposer</tspan><tspan
         sodipodi:role="line"
         x="294.75092"
         y="415.82913"
         id="tspan3001">keyboardcomposer</tspan><tspan
         sodipodi:role="line"
         x="294.75092"
         y="472.12125"
         id="tspan3003">subserver</tspan><tspan
         sodipodi:role="line"
         x="294.75092"
         y="528.41333"
         id="tspan3005">effecteval</tspan><tspan
         sodipodi:role="line"
         x="294.75092"
         y="584.70544"
         id="tspan3007">effecteval on host2</tspan><tspan
         sodipodi:role="line"
         x="294.75092"
         y="640.99756"
         id="tspan3009">vidref</tspan><tspan
         sodipodi:role="line"
         x="294.75092"
         y="697.28967"
         id="tspan3011" /></text>
    <rect
       style="opacity:0.68725867;color:#000000;fill:none;stroke:#000000;stroke-width:2.20000005;stroke-linecap:butt;stroke-linejoin:miter;stroke-miterlimit:4;stroke-opacity:1;stroke-dasharray:none;stroke-dashoffset:0;marker:none;visibility:visible;display:inline;overflow:visible;enable-background:accumulate"
       id="rect3013"
       width="190"
       height="51.42857"
       x="272.85715"
       y="246.07646" />
    <text
       xml:space="preserve"
       style="font-size:20px;font-style:normal;font-variant:normal;font-weight:normal;font-stretch:normal;text-align:start;line-height:125%;letter-spacing:0px;word-spacing:0px;writing-mode:lr-tb;text-anchor:start;fill:#000000;fill-opacity:1;stroke:none;font-family:Sans;-inkscape-font-specification:Sans"
       x="558.57141"
       y="208.93361"
       id="text3783"
       sodipodi:linespacing="125%"><tspan
         sodipodi:role="line"
         id="tspan3785"
         x="558.57141"
         y="208.93361">patches/sec</tspan><tspan
         sodipodi:role="line"
         x="558.57141"
         y="233.93361"
         id="tspan3787">from client</tspan></text>
    <path
       style="fill:none;stroke:#000000;stroke-width:0.42099494px;stroke-linecap:butt;stroke-linejoin:miter;stroke-opacity:1"
       d="m 551.13907,288.13714 c 2.39144,0 4.78289,0 7.17433,0 0.47828,0 1.00706,0.002 1.43486,0 0.60499,-0.002 1.27081,-0.006 1.43486,-0.0102 0.28234,-0.008 0,-1.75869 0,-2.01667 0,-0.084 -0.15124,-0.17237 0,-0.25209 0.33821,-0.17825 1.17548,-0.32189 1.43487,-0.50417 0.46401,-0.32608 -0.605,-0.68947 0,-1.00834 0.21389,-0.11273 1.22097,-0.13935 1.43486,-0.25208 0.3025,-0.15944 -0.42779,-0.35386 0,-0.50417 0.60499,-0.21258 1.91316,-0.33612 2.86974,-0.50417 0.47828,-0.084 0.82987,-0.19894 1.43486,-0.25209 0.4278,-0.0376 0.95658,0 1.43486,0 0.95658,0 1.91315,0 2.86973,0 0.47829,0 1.03691,-0.0466 1.43486,0 1.12561,0.13184 1.91317,0.33612 2.86974,0.50417 0.47829,0.084 1.13237,0.1458 1.43486,0.25209 0.26149,0.0919 0,1.11517 0,1.26042 0,0.92431 0,1.84862 0,2.77293 0,0.0599 -0.16079,0.52224 0,0.52452 1.09407,0.0155 3.77065,0.0102 5.73946,0.0102 0.95658,0 1.91316,0 2.86974,0 0.47828,0 1.03689,0.002 1.43486,0 1.1256,-0.005 1.65974,-0.016 2.86973,-0.0203 2.30372,-0.008 5.5909,0.0123 7.17432,-0.0102 0.2139,-0.003 0,-0.16805 0,-0.25208 0,-0.26082 -0.27334,-1.5725 0,-1.76459 0.25939,-0.18229 0.545,-0.39995 1.43487,-0.50417 0.14689,-0.0172 4.92273,0 5.73946,0 0.95658,0 1.91315,0 2.86973,0 0.47829,0 1.00707,-0.0376 1.43486,0 0.605,0.0531 1.13237,0.14579 1.43487,0.25208 0.16079,0.0565 0,0.94844 0,1.00834 0,0.42014 0,1.24347 0,1.26042 0,0.009 -0.33821,0.0162 1.43486,0.0204 0.0652,1.5e-4 6.96807,7.1e-4 7.17433,0 0.60499,-0.002 0.82987,-0.008 1.43486,-0.0102 0.85559,-0.003 2.01414,0.003 2.86973,0 0.60499,-0.002 0.82988,-0.008 1.43487,-0.0102 0.93212,-0.003 6.26417,0.003 7.17432,0 0.60499,-0.002 0.79318,-0.2145 1.43486,-0.25208 0.90749,-0.0531 1.91316,0 2.86974,0 0.47829,0 1.00707,0.0376 1.43486,0 1.99165,-0.17496 1.43487,-0.44854 1.43487,-0.75626 0,-0.084 -0.2139,-0.17693 0,-0.25208 0.30249,-0.10629 0.95657,-0.16806 1.43486,-0.25209 0,-0.16805 -0.3025,-0.34473 0,-0.50417 0.37685,-0.19862 5.04967,-0.76596 5.73946,-1.00834 0.2139,-0.0752 0,-0.16805 0,-0.25208 0.47829,-0.084 1.13237,-0.1458 1.43487,-0.25209 0.2139,-0.0752 -0.47829,-0.25208 0,-0.25208 2.03757,0 1.43486,0.57702 1.43486,0.75625 0,0.20608 -0.24241,1.63683 0,1.7646 0.4278,0.22547 2.26473,0.29159 2.86973,0.50417 0.46606,0.16376 -0.45508,0.77014 0,0.7766 0.60499,0.009 2.26474,0.0118 2.86974,0.0203 0.21388,0.003 -0.2139,0.007 0,0.0102 0.30249,0.004 0.95657,0.007 1.43486,0.0102 0.47829,0.003 0.75846,0.0102 1.43486,0.0102 0.58668,0 3.45123,-0.0285 4.30459,-0.0305 0.90749,-0.002 1.91316,0 2.86974,0 0.47829,0 1.00707,0.002 1.43486,0 0.605,-0.002 0.95658,-0.007 1.43487,-0.0102 0.95657,-0.007 1.74413,-0.015 2.86972,-0.0204 0.39797,-0.002 0.95658,0 1.43487,0 2.86973,0 5.73946,0 8.60919,0 0.47829,0 1.43486,-0.003 1.43486,0 0,0.003 -0.95657,0 -1.43486,0"
       id="path3789"
       inkscape:connector-curvature="0"
       sodipodi:nodetypes="csssssssscsssssssssssssssssssscsssccssssssssscsscsssssssssssscscsssc" />
    <text
       xml:space="preserve"
       style="font-size:20px;font-style:normal;font-variant:normal;font-weight:normal;font-stretch:normal;text-align:start;line-height:125%;letter-spacing:0px;word-spacing:0px;writing-mode:lr-tb;text-anchor:start;fill:#000000;fill-opacity:1;stroke:none;font-family:Sans;-inkscape-font-specification:Sans"
       x="70.571426"
       y="206.07648"
       id="text3791"
       sodipodi:linespacing="125%"><tspan
         sodipodi:role="line"
         id="tspan3793"
         x="70.571426"
         y="206.07648">patches/sec</tspan><tspan
         sodipodi:role="line"
         x="70.571426"
         y="231.07648"
         id="tspan3795">to client</tspan></text>
    <path
       sodipodi:nodetypes="csssssssscsssssssssssssssssssscsssccssssssssscsscsssssssssssscscsssc"
       inkscape:connector-curvature="0"
       id="path3797"
       d="m 50.571427,288.99126 c 2.38095,0 4.76191,0 7.14286,0 0.47619,0 1.00265,0.009 1.42857,0 0.60234,-0.0121 1.26524,-0.0313 1.42857,-0.0576 0.2811,-0.0454 0,-9.96659 0,-11.42857 0,-0.47619 -0.15058,-0.97682 0,-1.42857 0.33672,-1.01016 1.17032,-1.82414 1.42857,-2.85715 0.461983,-1.84789 -0.60234,-3.90727 0,-5.71428 0.212963,-0.63888 1.215623,-0.7897 1.428573,-1.42857 0.30117,-0.90351 -0.42591,-2.00531 0,-2.85715 0.60234,-1.20467 1.90477,-1.90476 2.85715,-2.85714 0.47619,-0.47619 0.82623,-1.1274 1.42857,-1.42857 0.42592,-0.21296 0.95238,0 1.42857,0 0.95238,0 1.90476,0 2.85714,0 0.47619,0 1.03236,-0.26414 1.42857,0 1.12067,0.74711 1.90477,1.90476 2.85715,2.85714 0.47619,0.47619 1.1274,0.82623 1.42857,1.42857 0.26034,0.52068 0,6.31972 0,7.14286 0,5.2381 0,10.47619 0,15.71429 0,0.33947 -0.16009,2.95952 0,2.97244 1.08927,0.0879 3.75411,0.0576 5.71428,0.0576 0.95239,0 1.90477,0 2.85715,0 0.47619,0 1.03235,0.0107 1.42857,0 1.12066,-0.0301 1.65246,-0.091 2.85714,-0.1153 2.29362,-0.0463 5.56638,0.0696 7.14286,-0.0576 0.21296,-0.0172 0,-0.95238 0,-1.42857 0,-1.47806 -0.27215,-8.91141 0,-10 0.25825,-1.033 0.54261,-2.2665 1.42857,-2.85714 0.14625,-0.0975 4.90114,0 5.71429,0 0.95238,0 1.90476,0 2.85714,0 0.47619,0 1.00265,-0.21296 1.42857,0 0.60234,0.30116 1.1274,0.82623 1.42857,1.42857 0.16009,0.32018 0,5.37481 0,5.71428 0,2.38095 0,7.04678 0,7.14286 0,0.0512 -0.33672,0.0915 1.42857,0.1153 0.0649,8.7e-4 6.93751,0.004 7.14286,0 0.60234,-0.0121 0.82623,-0.0455 1.42857,-0.0576 0.85184,-0.0172 2.00531,0.0172 2.85714,0 0.60234,-0.0121 0.82624,-0.0455 1.42858,-0.0576 0.92803,-0.0187 6.23669,0.0183 7.14285,0 0.60234,-0.0122 0.7897,-1.21561 1.42857,-1.42857 0.90351,-0.30117 1.90477,0 2.85715,0 0.47619,0 1.00265,0.21296 1.42857,0 1.98291,-0.99146 1.42857,-2.54189 1.42857,-4.28572 0,-0.47619 -0.21296,-1.00265 0,-1.42857 0.30117,-0.60234 0.95238,-0.95238 1.42857,-1.42857 0,-0.95238 -0.30117,-1.95363 0,-2.85714 0.3752,-1.1256 5.02752,-4.34074 5.71429,-5.71429 0.21296,-0.42592 0,-0.95238 0,-1.42857 0.47619,-0.47619 1.1274,-0.82623 1.42857,-1.42857 0.21296,-0.42592 -0.47619,-1.42857 0,-1.42857 2.02864,0 1.42857,3.27001 1.42857,4.28571 0,1.16785 -0.24135,9.27596 0,10 0.42592,1.27776 2.2548,1.65247 2.85714,2.85715 0.46402,0.92803 -0.45308,4.36444 0,4.40101 0.60234,0.0486 2.25481,0.0667 2.85715,0.1153 0.21295,0.0172 -0.21296,0.0405 0,0.0577 0.30117,0.0243 0.95238,0.0384 1.42857,0.0576 0.47619,0.0192 0.75513,0.0576 1.42857,0.0576 0.5841,0 3.43609,-0.16152 4.28571,-0.17295 0.90351,-0.0121 1.90477,0 2.85715,0 0.47619,0 1.00265,0.009 1.42857,0 0.60234,-0.0121 0.95238,-0.0384 1.42857,-0.0576 0.95238,-0.0384 1.73648,-0.0851 2.85714,-0.1153 0.39622,-0.0107 0.95238,0 1.42857,0 2.85715,0 5.71429,0 8.57143,0 0.47619,0 1.42857,-0.0192 1.42857,0 0,0.0192 -0.95238,0 -1.42857,0"
       style="fill:none;stroke:#000000;stroke-width:1px;stroke-linecap:butt;stroke-linejoin:miter;stroke-opacity:1" />
    <text
       xml:space="preserve"
       style="font-size:20px;font-style:normal;font-variant:normal;font-weight:normal;font-stretch:normal;text-align:start;line-height:125%;letter-spacing:0px;word-spacing:0px;writing-mode:lr-tb;text-anchor:start;fill:#000000;fill-opacity:1;stroke:none;font-family:Sans;-inkscape-font-specification:Sans"
       x="190.57143"
       y="278.93362"
       id="text3799"
       sodipodi:linespacing="125%"><tspan
         sodipodi:role="line"
         id="tspan3801"
         x="190.57143"
         y="278.93362">0.6</tspan></text>
    <text
       xml:space="preserve"
       style="font-size:20px;font-style:normal;font-variant:normal;font-weight:normal;font-stretch:normal;text-align:start;line-height:125%;letter-spacing:0px;word-spacing:0px;writing-mode:lr-tb;text-anchor:start;fill:#000000;fill-opacity:1;stroke:none;font-family:Sans;-inkscape-font-specification:Sans"
       x="685.71429"
       y="278.93359"
       id="text3803"
       sodipodi:linespacing="125%"><tspan
         sodipodi:role="line"
         id="tspan3805"
         x="685.71429"
         y="278.93359">0.0</tspan></text>
    <text
       sodipodi:linespacing="125%"
       id="text3811"
       y="292.69092"
       x="459.08704"
       style="font-size:60.98732376px;font-style:normal;font-variant:normal;font-weight:normal;font-stretch:normal;text-align:start;line-height:125%;letter-spacing:0px;word-spacing:0px;writing-mode:lr-tb;text-anchor:start;fill:#000000;fill-opacity:1;stroke:none;font-family:Sans;-inkscape-font-specification:Sans"
       xml:space="preserve"><tspan
         y="292.69092"
         x="459.08704"
         id="tspan3813"
         sodipodi:role="line">→</tspan></text>
    <text
       xml:space="preserve"
       style="font-size:60.98732376px;font-style:normal;font-variant:normal;font-weight:normal;font-stretch:normal;text-align:start;line-height:125%;letter-spacing:0px;word-spacing:0px;writing-mode:lr-tb;text-anchor:start;fill:#000000;fill-opacity:1;stroke:none;font-family:Sans;-inkscape-font-specification:Sans"
       x="226.94418"
       y="288.40518"
       id="text3815"
       sodipodi:linespacing="125%"><tspan
         sodipodi:role="line"
         id="tspan3817"
         x="226.94418"
         y="288.40518">→</tspan></text>
    <rect
       y="303.2193"
       x="272.85715"
       height="51.42857"
       width="190"
       id="rect3858"
       style="opacity:0.68725867;color:#000000;fill:none;stroke:#000000;stroke-width:2.20000005;stroke-linecap:butt;stroke-linejoin:miter;stroke-miterlimit:4;stroke-opacity:1;stroke-dasharray:none;stroke-dashoffset:0;marker:none;visibility:visible;display:inline;overflow:visible;enable-background:accumulate" />
    <path
       sodipodi:nodetypes="csssssssscsssssssssssssssssssscsssccssssssssscsscsssssssssssscscsssc"
       inkscape:connector-curvature="0"
       id="path3860"
       d="m 551.13907,345.28 c 2.39144,0 4.78289,0 7.17433,0 0.47828,0 1.00706,0.002 1.43486,0 0.60499,-0.002 1.27081,-0.006 1.43486,-0.0102 0.28234,-0.008 0,-1.75869 0,-2.01667 0,-0.084 -0.15124,-0.17237 0,-0.25209 0.33821,-0.17825 1.17548,-0.32189 1.43487,-0.50417 0.46401,-0.32608 -0.605,-0.68947 0,-1.00834 0.21389,-0.11273 1.22097,-0.13935 1.43486,-0.25208 0.3025,-0.15944 -0.42779,-0.35386 0,-0.50417 0.60499,-0.21258 1.91316,-0.33612 2.86974,-0.50417 0.47828,-0.084 0.82987,-0.19894 1.43486,-0.25209 0.4278,-0.0376 0.95658,0 1.43486,0 0.95658,0 1.91315,0 2.86973,0 0.47829,0 1.03691,-0.0466 1.43486,0 1.12561,0.13184 1.91317,0.33612 2.86974,0.50417 0.47829,0.084 1.13237,0.1458 1.43486,0.25209 0.26149,0.0919 0,1.11517 0,1.26042 0,0.92431 0,1.84862 0,2.77293 0,0.0599 -0.16079,0.52224 0,0.52452 1.09407,0.0155 3.77065,0.0102 5.73946,0.0102 0.95658,0 1.91316,0 2.86974,0 0.47828,0 1.03689,0.002 1.43486,0 1.1256,-0.005 1.65974,-0.016 2.86973,-0.0203 2.30372,-0.008 5.5909,0.0123 7.17432,-0.0102 0.2139,-0.003 0,-0.16805 0,-0.25208 0,-0.26082 -0.27334,-1.5725 0,-1.76459 0.25939,-0.18229 0.545,-0.39995 1.43487,-0.50417 0.14689,-0.0172 4.92273,0 5.73946,0 0.95658,0 1.91315,0 2.86973,0 0.47829,0 1.00707,-0.0376 1.43486,0 0.605,0.0531 1.13237,0.14579 1.43487,0.25208 0.16079,0.0565 0,0.94844 0,1.00834 0,0.42014 0,1.24347 0,1.26042 0,0.009 -0.33821,0.0162 1.43486,0.0204 0.0652,1.5e-4 6.96807,7.1e-4 7.17433,0 0.60499,-0.002 0.82987,-0.008 1.43486,-0.0102 0.85559,-0.003 2.01414,0.003 2.86973,0 0.60499,-0.002 0.82988,-0.008 1.43487,-0.0102 0.93212,-0.003 6.26417,0.003 7.17432,0 0.60499,-0.002 0.79318,-0.2145 1.43486,-0.25208 0.90749,-0.0531 1.91316,0 2.86974,0 0.47829,0 1.00707,0.0376 1.43486,0 1.99165,-0.17496 1.43487,-0.44854 1.43487,-0.75626 0,-0.084 -0.2139,-0.17693 0,-0.25208 0.30249,-0.10629 0.95657,-0.16806 1.43486,-0.25209 0,-0.16805 -0.3025,-0.34473 0,-0.50417 0.37685,-0.19862 5.04967,-0.76596 5.73946,-1.00834 0.2139,-0.0752 0,-0.16805 0,-0.25208 0.47829,-0.084 1.13237,-0.1458 1.43487,-0.25209 0.2139,-0.0752 -0.47829,-0.25208 0,-0.25208 2.03757,0 1.43486,0.57702 1.43486,0.75625 0,0.20608 -0.24241,1.63683 0,1.7646 0.4278,0.22547 2.26473,0.29159 2.86973,0.50417 0.46606,0.16376 -0.45508,0.77014 0,0.7766 0.60499,0.009 2.26474,0.0118 2.86974,0.0203 0.21388,0.003 -0.2139,0.007 0,0.0102 0.30249,0.004 0.95657,0.007 1.43486,0.0102 0.47829,0.003 0.75846,0.0102 1.43486,0.0102 0.58668,0 3.45123,-0.0285 4.30459,-0.0305 0.90749,-0.002 1.91316,0 2.86974,0 0.47829,0 1.00707,0.002 1.43486,0 0.605,-0.002 0.95658,-0.007 1.43487,-0.0102 0.95657,-0.007 1.74413,-0.015 2.86972,-0.0204 0.39797,-0.002 0.95658,0 1.43487,0 2.86973,0 5.73946,0 8.60919,0 0.47829,0 1.43486,-0.003 1.43486,0 0,0.003 -0.95657,0 -1.43486,0"
       style="fill:none;stroke:#000000;stroke-width:0.42099494px;stroke-linecap:butt;stroke-linejoin:miter;stroke-opacity:1" />
    <path
       style="fill:none;stroke:#000000;stroke-width:1px;stroke-linecap:butt;stroke-linejoin:miter;stroke-opacity:1"
       d="m 50.571427,346.13412 c 2.38095,0 4.76191,0 7.14286,0 0.47619,0 1.00265,0.009 1.42857,0 0.60234,-0.0121 1.26524,-0.0313 1.42857,-0.0576 0.2811,-0.0454 0,-9.96659 0,-11.42857 0,-0.47619 -0.15058,-0.97682 0,-1.42857 0.33672,-1.01016 1.17032,-1.82414 1.42857,-2.85715 0.461983,-1.84789 -0.60234,-3.90727 0,-5.71428 0.212963,-0.63888 1.215623,-0.7897 1.428573,-1.42857 0.30117,-0.90351 -0.42591,-2.00531 0,-2.85715 0.60234,-1.20467 1.90477,-1.90476 2.85715,-2.85714 0.47619,-0.47619 0.82623,-1.1274 1.42857,-1.42857 0.42592,-0.21296 0.95238,0 1.42857,0 0.95238,0 1.90476,0 2.85714,0 0.47619,0 1.03236,-0.26414 1.42857,0 1.12067,0.74711 1.90477,1.90476 2.85715,2.85714 0.47619,0.47619 1.1274,0.82623 1.42857,1.42857 0.26034,0.52068 0,6.31972 0,7.14286 0,5.2381 0,10.47619 0,15.71429 0,0.33947 -0.16009,2.95952 0,2.97244 1.08927,0.0879 3.75411,0.0576 5.71428,0.0576 0.95239,0 1.90477,0 2.85715,0 0.47619,0 1.03235,0.0107 1.42857,0 1.12066,-0.0301 1.65246,-0.091 2.85714,-0.1153 2.29362,-0.0463 5.56638,0.0696 7.14286,-0.0576 0.21296,-0.0172 0,-0.95238 0,-1.42857 0,-1.47806 -0.27215,-8.91141 0,-10 0.25825,-1.033 0.54261,-2.2665 1.42857,-2.85714 0.14625,-0.0975 4.90114,0 5.71429,0 0.95238,0 1.90476,0 2.85714,0 0.47619,0 1.00265,-0.21296 1.42857,0 0.60234,0.30116 1.1274,0.82623 1.42857,1.42857 0.16009,0.32018 0,5.37481 0,5.71428 0,2.38095 0,7.04678 0,7.14286 0,0.0512 -0.33672,0.0915 1.42857,0.1153 0.0649,8.7e-4 6.93751,0.004 7.14286,0 0.60234,-0.0121 0.82623,-0.0455 1.42857,-0.0576 0.85184,-0.0172 2.00531,0.0172 2.85714,0 0.60234,-0.0121 0.82624,-0.0455 1.42858,-0.0576 0.92803,-0.0187 6.23669,0.0183 7.14285,0 0.60234,-0.0122 0.7897,-1.21561 1.42857,-1.42857 0.90351,-0.30117 1.90477,0 2.85715,0 0.47619,0 1.00265,0.21296 1.42857,0 1.98291,-0.99146 1.42857,-2.54189 1.42857,-4.28572 0,-0.47619 -0.21296,-1.00265 0,-1.42857 0.30117,-0.60234 0.95238,-0.95238 1.42857,-1.42857 0,-0.95238 -0.30117,-1.95363 0,-2.85714 0.3752,-1.1256 5.02752,-4.34074 5.71429,-5.71429 0.21296,-0.42592 0,-0.95238 0,-1.42857 0.47619,-0.47619 1.1274,-0.82623 1.42857,-1.42857 0.21296,-0.42592 -0.47619,-1.42857 0,-1.42857 2.02864,0 1.42857,3.27001 1.42857,4.28571 0,1.16785 -0.24135,9.27596 0,10 0.42592,1.27776 2.2548,1.65247 2.85714,2.85715 0.46402,0.92803 -0.45308,4.36444 0,4.40101 0.60234,0.0486 2.25481,0.0667 2.85715,0.1153 0.21295,0.0172 -0.21296,0.0405 0,0.0577 0.30117,0.0243 0.95238,0.0384 1.42857,0.0576 0.47619,0.0192 0.75513,0.0576 1.42857,0.0576 0.5841,0 3.43609,-0.16152 4.28571,-0.17295 0.90351,-0.0121 1.90477,0 2.85715,0 0.47619,0 1.00265,0.009 1.42857,0 0.60234,-0.0121 0.95238,-0.0384 1.42857,-0.0576 0.95238,-0.0384 1.73648,-0.0851 2.85714,-0.1153 0.39622,-0.0107 0.95238,0 1.42857,0 2.85715,0 5.71429,0 8.57143,0 0.47619,0 1.42857,-0.0192 1.42857,0 0,0.0192 -0.95238,0 -1.42857,0"
       id="path3862"
       inkscape:connector-curvature="0"
       sodipodi:nodetypes="csssssssscsssssssssssssssssssscsssccssssssssscsscsssssssssssscscsssc" />
    <text
       sodipodi:linespacing="125%"
       id="text3864"
       y="336.07648"
       x="190.57143"
       style="font-size:20px;font-style:normal;font-variant:normal;font-weight:normal;font-stretch:normal;text-align:start;line-height:125%;letter-spacing:0px;word-spacing:0px;writing-mode:lr-tb;text-anchor:start;fill:#000000;fill-opacity:1;stroke:none;font-family:Sans;-inkscape-font-specification:Sans"
       xml:space="preserve"><tspan
         y="336.07648"
         x="190.57143"
         id="tspan3866"
         sodipodi:role="line">0.6</tspan></text>
    <text
       sodipodi:linespacing="125%"
       id="text3868"
       y="336.07648"
       x="685.71429"
       style="font-size:20px;font-style:normal;font-variant:normal;font-weight:normal;font-stretch:normal;text-align:start;line-height:125%;letter-spacing:0px;word-spacing:0px;writing-mode:lr-tb;text-anchor:start;fill:#000000;fill-opacity:1;stroke:none;font-family:Sans;-inkscape-font-specification:Sans"
       xml:space="preserve"><tspan
         y="336.07648"
         x="685.71429"
         id="tspan3870"
         sodipodi:role="line">0.0</tspan></text>
    <text
       xml:space="preserve"
       style="font-size:60.98732376px;font-style:normal;font-variant:normal;font-weight:normal;font-stretch:normal;text-align:start;line-height:125%;letter-spacing:0px;word-spacing:0px;writing-mode:lr-tb;text-anchor:start;fill:#000000;fill-opacity:1;stroke:none;font-family:Sans;-inkscape-font-specification:Sans"
       x="459.08704"
       y="349.83377"
       id="text3872"
       sodipodi:linespacing="125%"><tspan
         sodipodi:role="line"
         id="tspan3874"
         x="459.08704"
         y="349.83377">→</tspan></text>
    <text
       sodipodi:linespacing="125%"
       id="text3876"
       y="345.54803"
       x="226.94418"
       style="font-size:60.98732376px;font-style:normal;font-variant:normal;font-weight:normal;font-stretch:normal;text-align:start;line-height:125%;letter-spacing:0px;word-spacing:0px;writing-mode:lr-tb;text-anchor:start;fill:#000000;fill-opacity:1;stroke:none;font-family:Sans;-inkscape-font-specification:Sans"
       xml:space="preserve"><tspan
         y="345.54803"
         x="226.94418"
         id="tspan3878"
         sodipodi:role="line">→</tspan></text>
    <rect
       style="opacity:0.68725867;color:#000000;fill:none;stroke:#000000;stroke-width:2.20000005;stroke-linecap:butt;stroke-linejoin:miter;stroke-miterlimit:4;stroke-opacity:1;stroke-dasharray:none;stroke-dashoffset:0;marker:none;visibility:visible;display:inline;overflow:visible;enable-background:accumulate"
       id="rect3880"
       width="190"
       height="51.42857"
       x="272.85715"
       y="366.07645" />
    <path
       style="fill:none;stroke:#000000;stroke-width:1.10879791px;stroke-linecap:butt;stroke-linejoin:miter;stroke-opacity:1"
       d="m 551.48297,407.42829 c 2.37898,0 4.75797,0 7.13695,0 0.47579,0 1.00181,0.0139 1.42738,0 0.60184,-0.014 1.26419,-0.0418 1.42739,-0.0711 0.28087,-0.0558 0,-12.26335 0,-14.06224 0,-0.58573 -0.15045,-1.20194 0,-1.75782 0.33645,-1.24294 1.16935,-2.24454 1.42739,-3.51558 0.46159,-2.27376 -0.60185,-4.80768 0,-7.03116 0.21278,-0.78607 1.21461,-0.97169 1.42739,-1.75775 0.30092,-1.11178 -0.42556,-2.46747 0,-3.51558 0.60183,-1.48232 1.90319,-2.34377 2.85478,-3.51558 0.47579,-0.58573 0.82555,-1.38721 1.42739,-1.75782 0.42557,-0.26219 0.95159,0 1.42738,0 0.9516,0 1.90318,0 2.85478,0 0.4758,0 1.03151,-0.32495 1.42738,0 1.11975,0.91932 1.90321,2.34376 2.85479,3.51557 0.4758,0.58574 1.12647,1.01667 1.42739,1.75783 0.26012,0.64082 0,7.77608 0,8.78891 0,6.44521 0,12.89043 0,19.33565 0,0.41768 -0.15996,3.64158 0,3.65747 1.08836,0.10809 3.751,0.0711 5.70955,0.0711 0.9516,0 1.90319,0 2.85479,0 0.47579,0 1.03149,0.0139 1.42738,0 1.11974,-0.0349 1.65109,-0.11157 2.85478,-0.14155 2.29172,-0.0558 5.56177,0.0858 7.13694,-0.0711 0.21279,-0.0209 0,-1.17181 0,-1.75775 0,-1.8187 -0.27192,-10.96505 0,-12.30449 0.25804,-1.27111 0.54216,-2.78885 1.42739,-3.51558 0.14613,-0.11994 4.89708,0 5.70956,0 0.95159,0 1.90318,0 2.85478,0 0.47579,0 1.00182,-0.26218 1.42738,0 0.60185,0.37027 1.12647,1.01659 1.42739,1.75775 0.15996,0.39398 0,6.61348 0,7.03116 0,2.92964 0,8.67072 0,8.78891 0,0.0628 -0.33644,0.11296 1.42739,0.14225 0.0649,10e-4 6.93176,0.005 7.13695,0 0.60184,-0.0139 0.82554,-0.0558 1.42738,-0.0711 0.85113,-0.0209 2.00365,0.0209 2.85478,0 0.60184,-0.0139 0.82556,-0.0558 1.42739,-0.0711 0.92727,-0.0209 6.23153,0.0209 7.13694,0 0.60184,-0.0139 0.78905,-1.49571 1.42739,-1.75775 0.90276,-0.37027 1.90319,0 2.85478,0 0.4758,0 1.00183,0.26218 1.42739,0 1.98127,-1.22 1.42739,-3.12767 1.42739,-5.2734 0,-0.58574 -0.21278,-1.23374 0,-1.75776 0.30092,-0.74116 0.95159,-1.17188 1.42739,-1.75782 0,-1.17182 -0.30093,-2.40381 0,-3.51558 0.37488,-1.38498 5.02336,-5.34104 5.70955,-7.03116 0.21279,-0.52437 0,-1.17181 0,-1.75775 0.4758,-0.58573 1.12647,-1.01667 1.4274,-1.75783 0.21278,-0.52437 -0.4758,-1.75775 0,-1.75775 2.02695,0 1.42738,4.02356 1.42738,5.27333 0,1.437 -0.24115,11.41362 0,12.30456 0.42557,1.5722 2.25293,2.03326 2.85478,3.51558 12.14797,0.41853 9.53632,4.41793 15.4947,-4.96756 0.95159,-0.0488 2.92376,-4.65074 4.04349,-4.68839 0.39589,-0.014 7.29088,-4.64286 7.76668,-4.64286"
       id="path3882"
       inkscape:connector-curvature="0"
       sodipodi:nodetypes="csssssssscsssssssssssssssssssscsssccssssssssscsscsssscccc" />
    <path
       sodipodi:nodetypes="csssssssscsssssssssssssssssssscsssccssssssssscsscsssssssssssscscsssc"
       inkscape:connector-curvature="0"
       id="path3884"
       d="m 50.571427,408.99126 c 2.38095,0 4.76191,0 7.14286,0 0.47619,0 1.00265,0.009 1.42857,0 0.60234,-0.0121 1.26524,-0.0313 1.42857,-0.0576 0.2811,-0.0454 0,-9.96659 0,-11.42857 0,-0.47619 -0.15058,-0.97682 0,-1.42857 0.33672,-1.01016 1.17032,-1.82414 1.42857,-2.85715 0.461983,-1.84789 -0.60234,-3.90727 0,-5.71428 0.212963,-0.63888 1.215623,-0.7897 1.428573,-1.42857 0.30117,-0.90351 -0.42591,-2.00531 0,-2.85715 0.60234,-1.20467 1.90477,-1.90476 2.85715,-2.85714 0.47619,-0.47619 0.82623,-1.1274 1.42857,-1.42857 0.42592,-0.21296 0.95238,0 1.42857,0 0.95238,0 1.90476,0 2.85714,0 0.47619,0 1.03236,-0.26414 1.42857,0 1.12067,0.74711 1.90477,1.90476 2.85715,2.85714 0.47619,0.47619 1.1274,0.82623 1.42857,1.42857 0.26034,0.52068 0,6.31972 0,7.14286 0,5.2381 0,10.47619 0,15.71429 0,0.33947 -0.16009,2.95952 0,2.97244 1.08927,0.0879 3.75411,0.0576 5.71428,0.0576 0.95239,0 1.90477,0 2.85715,0 0.47619,0 1.03235,0.0107 1.42857,0 1.12066,-0.0301 1.65246,-0.091 2.85714,-0.1153 2.29362,-0.0463 5.56638,0.0696 7.14286,-0.0576 0.21296,-0.0172 0,-0.95238 0,-1.42857 0,-1.47806 -0.27215,-8.91141 0,-10 0.25825,-1.033 0.54261,-2.2665 1.42857,-2.85714 0.14625,-0.0975 4.90114,0 5.71429,0 0.95238,0 1.90476,0 2.85714,0 0.47619,0 1.00265,-0.21296 1.42857,0 0.60234,0.30116 1.1274,0.82623 1.42857,1.42857 0.16009,0.32018 0,5.37481 0,5.71428 0,2.38095 0,7.04678 0,7.14286 0,0.0512 -0.33672,0.0915 1.42857,0.1153 0.0649,8.7e-4 6.93751,0.004 7.14286,0 0.60234,-0.0121 0.82623,-0.0455 1.42857,-0.0576 0.85184,-0.0172 2.00531,0.0172 2.85714,0 0.60234,-0.0121 0.82624,-0.0455 1.42858,-0.0576 0.92803,-0.0187 6.23669,0.0183 7.14285,0 0.60234,-0.0122 0.7897,-1.21561 1.42857,-1.42857 0.90351,-0.30117 1.90477,0 2.85715,0 0.47619,0 1.00265,0.21296 1.42857,0 1.98291,-0.99146 1.42857,-2.54189 1.42857,-4.28572 0,-0.47619 -0.21296,-1.00265 0,-1.42857 0.30117,-0.60234 0.95238,-0.95238 1.42857,-1.42857 0,-0.95238 -0.30117,-1.95363 0,-2.85714 0.3752,-1.1256 5.02752,-4.34074 5.71429,-5.71429 0.21296,-0.42592 0,-0.95238 0,-1.42857 0.47619,-0.47619 1.1274,-0.82623 1.42857,-1.42857 0.21296,-0.42592 -0.47619,-1.42857 0,-1.42857 2.02864,0 1.42857,3.27001 1.42857,4.28571 0,1.16785 -0.24135,9.27596 0,10 0.42592,1.27776 2.2548,1.65247 2.85714,2.85715 0.46402,0.92803 -0.45308,4.36444 0,4.40101 0.60234,0.0486 2.25481,0.0667 2.85715,0.1153 0.21295,0.0172 -0.21296,0.0405 0,0.0577 0.30117,0.0243 0.95238,0.0384 1.42857,0.0576 0.47619,0.0192 0.75513,0.0576 1.42857,0.0576 0.5841,0 3.43609,-0.16152 4.28571,-0.17295 0.90351,-0.0121 1.90477,0 2.85715,0 0.47619,0 1.00265,0.009 1.42857,0 0.60234,-0.0121 0.95238,-0.0384 1.42857,-0.0576 0.95238,-0.0384 1.73648,-0.0851 2.85714,-0.1153 0.39622,-0.0107 0.95238,0 1.42857,0 2.85715,0 5.71429,0 8.57143,0 0.47619,0 1.42857,-0.0192 1.42857,0 0,0.0192 -0.95238,0 -1.42857,0"
       style="fill:none;stroke:#000000;stroke-width:1px;stroke-linecap:butt;stroke-linejoin:miter;stroke-opacity:1" />
    <text
       xml:space="preserve"
       style="font-size:20px;font-style:normal;font-variant:normal;font-weight:normal;font-stretch:normal;text-align:start;line-height:125%;letter-spacing:0px;word-spacing:0px;writing-mode:lr-tb;text-anchor:start;fill:#000000;fill-opacity:1;stroke:none;font-family:Sans;-inkscape-font-specification:Sans"
       x="190.57143"
       y="398.93362"
       id="text3886"
       sodipodi:linespacing="125%"><tspan
         sodipodi:role="line"
         id="tspan3888"
         x="190.57143"
         y="398.93362">0.6</tspan></text>
    <text
       xml:space="preserve"
       style="font-size:20px;font-style:normal;font-variant:normal;font-weight:normal;font-stretch:normal;text-align:start;line-height:125%;letter-spacing:0px;word-spacing:0px;writing-mode:lr-tb;text-anchor:start;fill:#000000;fill-opacity:1;stroke:none;font-family:Sans;-inkscape-font-specification:Sans"
       x="685.71429"
       y="398.93362"
       id="text3890"
       sodipodi:linespacing="125%"><tspan
         sodipodi:role="line"
         x="685.71429"
         y="398.93362"
         id="tspan4012">0.8</tspan></text>
    <text
       sodipodi:linespacing="125%"
       id="text3894"
       y="412.69092"
       x="459.08704"
       style="font-size:60.98732376px;font-style:normal;font-variant:normal;font-weight:normal;font-stretch:normal;text-align:start;line-height:125%;letter-spacing:0px;word-spacing:0px;writing-mode:lr-tb;text-anchor:start;fill:#000000;fill-opacity:1;stroke:none;font-family:Sans;-inkscape-font-specification:Sans"
       xml:space="preserve"><tspan
         y="412.69092"
         x="459.08704"
         id="tspan3896"
         sodipodi:role="line">→</tspan></text>
    <text
       xml:space="preserve"
       style="font-size:60.98732376px;font-style:normal;font-variant:normal;font-weight:normal;font-stretch:normal;text-align:start;line-height:125%;letter-spacing:0px;word-spacing:0px;writing-mode:lr-tb;text-anchor:start;fill:#000000;fill-opacity:1;stroke:none;font-family:Sans;-inkscape-font-specification:Sans"
       x="226.94418"
       y="408.40518"
       id="text3898"
       sodipodi:linespacing="125%"><tspan
         sodipodi:role="line"
         id="tspan3900"
         x="226.94418"
         y="408.40518">→</tspan></text>
    <rect
       y="420.36215"
       x="272.85715"
       height="51.42857"
       width="190"
       id="rect3902"
       style="opacity:0.68725867;color:#000000;fill:none;stroke:#000000;stroke-width:2.20000005;stroke-linecap:butt;stroke-linejoin:miter;stroke-miterlimit:4;stroke-opacity:1;stroke-dasharray:none;stroke-dashoffset:0;marker:none;visibility:visible;display:inline;overflow:visible;enable-background:accumulate" />
    <path
       sodipodi:nodetypes="csssssssscsssssssssssssssssssscsssccssssssssscsscsssssssssssscscsssc"
       inkscape:connector-curvature="0"
       id="path3904"
       d="m 551.13907,462.42285 c 2.39144,0 4.78289,0 7.17433,0 0.47828,0 1.00706,0.002 1.43486,0 0.60499,-0.002 1.27081,-0.006 1.43486,-0.0102 0.28234,-0.008 0,-1.75869 0,-2.01667 0,-0.084 -0.15124,-0.17237 0,-0.25209 0.33821,-0.17825 1.17548,-0.32189 1.43487,-0.50417 0.46401,-0.32608 -0.605,-0.68947 0,-1.00834 0.21389,-0.11273 1.22097,-0.13935 1.43486,-0.25208 0.3025,-0.15944 -0.42779,-0.35386 0,-0.50417 0.60499,-0.21258 1.91316,-0.33612 2.86974,-0.50417 0.47828,-0.084 0.82987,-0.19894 1.43486,-0.25209 0.4278,-0.0376 0.95658,0 1.43486,0 0.95658,0 1.91315,0 2.86973,0 0.47829,0 1.03691,-0.0466 1.43486,0 1.12561,0.13184 1.91317,0.33612 2.86974,0.50417 0.47829,0.084 1.13237,0.1458 1.43486,0.25209 0.26149,0.0919 0,1.11517 0,1.26042 0,0.92431 0,1.84862 0,2.77293 0,0.0599 -0.16079,0.52224 0,0.52452 1.09407,0.0155 3.77065,0.0102 5.73946,0.0102 0.95658,0 1.91316,0 2.86974,0 0.47828,0 1.03689,0.002 1.43486,0 1.1256,-0.005 1.65974,-0.016 2.86973,-0.0203 2.30372,-0.008 5.5909,0.0123 7.17432,-0.0102 0.2139,-0.003 0,-0.16805 0,-0.25208 0,-0.26082 -0.27334,-1.5725 0,-1.76459 0.25939,-0.18229 0.545,-0.39995 1.43487,-0.50417 0.14689,-0.0172 4.92273,0 5.73946,0 0.95658,0 1.91315,0 2.86973,0 0.47829,0 1.00707,-0.0376 1.43486,0 0.605,0.0531 1.13237,0.14579 1.43487,0.25208 0.16079,0.0565 0,0.94844 0,1.00834 0,0.42014 0,1.24347 0,1.26042 0,0.009 -0.33821,0.0162 1.43486,0.0204 0.0652,1.5e-4 6.96807,7.1e-4 7.17433,0 0.60499,-0.002 0.82987,-0.008 1.43486,-0.0102 0.85559,-0.003 2.01414,0.003 2.86973,0 0.60499,-0.002 0.82988,-0.008 1.43487,-0.0102 0.93212,-0.003 6.26417,0.003 7.17432,0 0.60499,-0.002 0.79318,-0.2145 1.43486,-0.25208 0.90749,-0.0531 1.91316,0 2.86974,0 0.47829,0 1.00707,0.0376 1.43486,0 1.99165,-0.17496 1.43487,-0.44854 1.43487,-0.75626 0,-0.084 -0.2139,-0.17693 0,-0.25208 0.30249,-0.10629 0.95657,-0.16806 1.43486,-0.25209 0,-0.16805 -0.3025,-0.34473 0,-0.50417 0.37685,-0.19862 5.04967,-0.76596 5.73946,-1.00834 0.2139,-0.0752 0,-0.16805 0,-0.25208 0.47829,-0.084 1.13237,-0.1458 1.43487,-0.25209 0.2139,-0.0752 -0.47829,-0.25208 0,-0.25208 2.03757,0 1.43486,0.57702 1.43486,0.75625 0,0.20608 -0.24241,1.63683 0,1.7646 0.4278,0.22547 2.26473,0.29159 2.86973,0.50417 0.46606,0.16376 -0.45508,0.77014 0,0.7766 0.60499,0.009 2.26474,0.0118 2.86974,0.0203 0.21388,0.003 -0.2139,0.007 0,0.0102 0.30249,0.004 0.95657,0.007 1.43486,0.0102 0.47829,0.003 0.75846,0.0102 1.43486,0.0102 0.58668,0 3.45123,-0.0285 4.30459,-0.0305 0.90749,-0.002 1.91316,0 2.86974,0 0.47829,0 1.00707,0.002 1.43486,0 0.605,-0.002 0.95658,-0.007 1.43487,-0.0102 0.95657,-0.007 1.74413,-0.015 2.86972,-0.0204 0.39797,-0.002 0.95658,0 1.43487,0 2.86973,0 5.73946,0 8.60919,0 0.47829,0 1.43486,-0.003 1.43486,0 0,0.003 -0.95657,0 -1.43486,0"
       style="fill:none;stroke:#000000;stroke-width:0.42099494px;stroke-linecap:butt;stroke-linejoin:miter;stroke-opacity:1" />
    <path
       style="fill:none;stroke:#000000;stroke-width:1px;stroke-linecap:butt;stroke-linejoin:miter;stroke-opacity:1"
       d="m 50.571427,463.27697 c 2.38095,0 4.76191,0 7.14286,0 0.47619,0 1.00265,0.009 1.42857,0 0.60234,-0.0121 1.26524,-0.0313 1.42857,-0.0576 0.2811,-0.0454 0,-9.96659 0,-11.42857 0,-0.47619 -0.15058,-0.97682 0,-1.42857 0.33672,-1.01016 1.17032,-1.82414 1.42857,-2.85715 0.461983,-1.84789 -0.60234,-3.90727 0,-5.71428 0.212963,-0.63888 1.215623,-0.7897 1.428573,-1.42857 0.30117,-0.90351 -0.42591,-2.00531 0,-2.85715 0.60234,-1.20467 1.90477,-1.90476 2.85715,-2.85714 0.47619,-0.47619 0.82623,-1.1274 1.42857,-1.42857 0.42592,-0.21296 0.95238,0 1.42857,0 0.95238,0 1.90476,0 2.85714,0 0.47619,0 1.03236,-0.26414 1.42857,0 1.12067,0.74711 1.90477,1.90476 2.85715,2.85714 0.47619,0.47619 1.1274,0.82623 1.42857,1.42857 0.26034,0.52068 0,6.31972 0,7.14286 0,5.2381 0,10.47619 0,15.71429 0,0.33947 -0.16009,2.95952 0,2.97244 1.08927,0.0879 3.75411,0.0576 5.71428,0.0576 0.95239,0 1.90477,0 2.85715,0 0.47619,0 1.03235,0.0107 1.42857,0 1.12066,-0.0301 1.65246,-0.091 2.85714,-0.1153 2.29362,-0.0463 5.56638,0.0696 7.14286,-0.0576 0.21296,-0.0172 0,-0.95238 0,-1.42857 0,-1.47806 -0.27215,-8.91141 0,-10 0.25825,-1.033 0.54261,-2.2665 1.42857,-2.85714 0.14625,-0.0975 4.90114,0 5.71429,0 0.95238,0 1.90476,0 2.85714,0 0.47619,0 1.00265,-0.21296 1.42857,0 0.60234,0.30116 1.1274,0.82623 1.42857,1.42857 0.16009,0.32018 0,5.37481 0,5.71428 0,2.38095 0,7.04678 0,7.14286 0,0.0512 -0.33672,0.0915 1.42857,0.1153 0.0649,8.7e-4 6.93751,0.004 7.14286,0 0.60234,-0.0121 0.82623,-0.0455 1.42857,-0.0576 0.85184,-0.0172 2.00531,0.0172 2.85714,0 0.60234,-0.0121 0.82624,-0.0455 1.42858,-0.0576 0.92803,-0.0187 6.23669,0.0183 7.14285,0 0.60234,-0.0122 0.7897,-1.21561 1.42857,-1.42857 0.90351,-0.30117 1.90477,0 2.85715,0 0.47619,0 1.00265,0.21296 1.42857,0 1.98291,-0.99146 1.42857,-2.54189 1.42857,-4.28572 0,-0.47619 -0.21296,-1.00265 0,-1.42857 0.30117,-0.60234 0.95238,-0.95238 1.42857,-1.42857 0,-0.95238 -0.30117,-1.95363 0,-2.85714 0.3752,-1.1256 5.02752,-4.34074 5.71429,-5.71429 0.21296,-0.42592 0,-0.95238 0,-1.42857 0.47619,-0.47619 1.1274,-0.82623 1.42857,-1.42857 0.21296,-0.42592 -0.47619,-1.42857 0,-1.42857 2.02864,0 1.42857,3.27001 1.42857,4.28571 0,1.16785 -0.24135,9.27596 0,10 0.42592,1.27776 2.2548,1.65247 2.85714,2.85715 0.46402,0.92803 -0.45308,4.36444 0,4.40101 0.60234,0.0486 2.25481,0.0667 2.85715,0.1153 0.21295,0.0172 -0.21296,0.0405 0,0.0577 0.30117,0.0243 0.95238,0.0384 1.42857,0.0576 0.47619,0.0192 0.75513,0.0576 1.42857,0.0576 0.5841,0 3.43609,-0.16152 4.28571,-0.17295 0.90351,-0.0121 1.90477,0 2.85715,0 0.47619,0 1.00265,0.009 1.42857,0 0.60234,-0.0121 0.95238,-0.0384 1.42857,-0.0576 0.95238,-0.0384 1.73648,-0.0851 2.85714,-0.1153 0.39622,-0.0107 0.95238,0 1.42857,0 2.85715,0 5.71429,0 8.57143,0 0.47619,0 1.42857,-0.0192 1.42857,0 0,0.0192 -0.95238,0 -1.42857,0"
       id="path3906"
       inkscape:connector-curvature="0"
       sodipodi:nodetypes="csssssssscsssssssssssssssssssscsssccssssssssscsscsssssssssssscscsssc" />
    <text
       sodipodi:linespacing="125%"
       id="text3908"
       y="453.21933"
       x="190.57143"
       style="font-size:20px;font-style:normal;font-variant:normal;font-weight:normal;font-stretch:normal;text-align:start;line-height:125%;letter-spacing:0px;word-spacing:0px;writing-mode:lr-tb;text-anchor:start;fill:#000000;fill-opacity:1;stroke:none;font-family:Sans;-inkscape-font-specification:Sans"
       xml:space="preserve"><tspan
         y="453.21933"
         x="190.57143"
         id="tspan3910"
         sodipodi:role="line">0.6</tspan></text>
    <text
       sodipodi:linespacing="125%"
       id="text3912"
       y="453.21933"
       x="685.71429"
       style="font-size:20px;font-style:normal;font-variant:normal;font-weight:normal;font-stretch:normal;text-align:start;line-height:125%;letter-spacing:0px;word-spacing:0px;writing-mode:lr-tb;text-anchor:start;fill:#000000;fill-opacity:1;stroke:none;font-family:Sans;-inkscape-font-specification:Sans"
       xml:space="preserve"><tspan
         y="453.21933"
         x="685.71429"
         id="tspan3914"
         sodipodi:role="line">0.0</tspan></text>
    <text
       xml:space="preserve"
       style="font-size:60.98732376px;font-style:normal;font-variant:normal;font-weight:normal;font-stretch:normal;text-align:start;line-height:125%;letter-spacing:0px;word-spacing:0px;writing-mode:lr-tb;text-anchor:start;fill:#000000;fill-opacity:1;stroke:none;font-family:Sans;-inkscape-font-specification:Sans"
       x="459.08704"
       y="466.97662"
       id="text3916"
       sodipodi:linespacing="125%"><tspan
         sodipodi:role="line"
         id="tspan3918"
         x="459.08704"
         y="466.97662">→</tspan></text>
    <text
       sodipodi:linespacing="125%"
       id="text3920"
       y="462.69089"
       x="226.94418"
       style="font-size:60.98732376px;font-style:normal;font-variant:normal;font-weight:normal;font-stretch:normal;text-align:start;line-height:125%;letter-spacing:0px;word-spacing:0px;writing-mode:lr-tb;text-anchor:start;fill:#000000;fill-opacity:1;stroke:none;font-family:Sans;-inkscape-font-specification:Sans"
       xml:space="preserve"><tspan
         y="462.69089"
         x="226.94418"
         id="tspan3922"
         sodipodi:role="line">→</tspan></text>
    <rect
       style="opacity:0.68725867;color:#000000;fill:none;stroke:#000000;stroke-width:2.20000005;stroke-linecap:butt;stroke-linejoin:miter;stroke-miterlimit:4;stroke-opacity:1;stroke-dasharray:none;stroke-dashoffset:0;marker:none;visibility:visible;display:inline;overflow:visible;enable-background:accumulate"
       id="rect3924"
       width="190"
       height="51.42857"
       x="272.85715"
       y="483.2193" />
    <path
       style="fill:none;stroke:#000000;stroke-width:0.42099494px;stroke-linecap:butt;stroke-linejoin:miter;stroke-opacity:1"
       d="m 551.13907,525.27999 c 2.39144,0 4.78289,0 7.17433,0 0.47828,0 1.00706,0.002 1.43486,0 0.60499,-0.002 1.27081,-0.006 1.43486,-0.0102 0.28234,-0.008 0,-1.75869 0,-2.01667 0,-0.084 -0.15124,-0.17237 0,-0.25209 0.33821,-0.17825 1.17548,-0.32189 1.43487,-0.50417 0.46401,-0.32608 -0.605,-0.68947 0,-1.00834 0.21389,-0.11273 1.22097,-0.13935 1.43486,-0.25208 0.3025,-0.15944 -0.42779,-0.35386 0,-0.50417 0.60499,-0.21258 1.91316,-0.33612 2.86974,-0.50417 0.47828,-0.084 0.82987,-0.19894 1.43486,-0.25209 0.4278,-0.0376 0.95658,0 1.43486,0 0.95658,0 1.91315,0 2.86973,0 0.47829,0 1.03691,-0.0466 1.43486,0 1.12561,0.13184 1.91317,0.33612 2.86974,0.50417 0.47829,0.084 1.13237,0.1458 1.43486,0.25209 0.26149,0.0919 0,1.11517 0,1.26042 0,0.92431 0,1.84862 0,2.77293 0,0.0599 -0.16079,0.52224 0,0.52452 1.09407,0.0155 3.77065,0.0102 5.73946,0.0102 0.95658,0 1.91316,0 2.86974,0 0.47828,0 1.03689,0.002 1.43486,0 1.1256,-0.005 1.65974,-0.016 2.86973,-0.0203 2.30372,-0.008 5.5909,0.0123 7.17432,-0.0102 0.2139,-0.003 0,-0.16805 0,-0.25208 0,-0.26082 -0.27334,-1.5725 0,-1.76459 0.25939,-0.18229 0.545,-0.39995 1.43487,-0.50417 0.14689,-0.0172 4.92273,0 5.73946,0 0.95658,0 1.91315,0 2.86973,0 0.47829,0 1.00707,-0.0376 1.43486,0 0.605,0.0531 1.13237,0.14579 1.43487,0.25208 0.16079,0.0565 0,0.94844 0,1.00834 0,0.42014 0,1.24347 0,1.26042 0,0.009 -0.33821,0.0162 1.43486,0.0204 0.0652,1.5e-4 6.96807,7.1e-4 7.17433,0 0.60499,-0.002 0.82987,-0.008 1.43486,-0.0102 0.85559,-0.003 2.01414,0.003 2.86973,0 0.60499,-0.002 0.82988,-0.008 1.43487,-0.0102 0.93212,-0.003 6.26417,0.003 7.17432,0 0.60499,-0.002 0.79318,-0.2145 1.43486,-0.25208 0.90749,-0.0531 1.91316,0 2.86974,0 0.47829,0 1.00707,0.0376 1.43486,0 1.99165,-0.17496 1.43487,-0.44854 1.43487,-0.75626 0,-0.084 -0.2139,-0.17693 0,-0.25208 0.30249,-0.10629 0.95657,-0.16806 1.43486,-0.25209 0,-0.16805 -0.3025,-0.34473 0,-0.50417 0.37685,-0.19862 5.04967,-0.76596 5.73946,-1.00834 0.2139,-0.0752 0,-0.16805 0,-0.25208 0.47829,-0.084 1.13237,-0.1458 1.43487,-0.25209 0.2139,-0.0752 -0.47829,-0.25208 0,-0.25208 2.03757,0 1.43486,0.57702 1.43486,0.75625 0,0.20608 -0.24241,1.63683 0,1.7646 0.4278,0.22547 2.26473,0.29159 2.86973,0.50417 0.46606,0.16376 -0.45508,0.77014 0,0.7766 0.60499,0.009 2.26474,0.0118 2.86974,0.0203 0.21388,0.003 -0.2139,0.007 0,0.0102 0.30249,0.004 0.95657,0.007 1.43486,0.0102 0.47829,0.003 0.75846,0.0102 1.43486,0.0102 0.58668,0 3.45123,-0.0285 4.30459,-0.0305 0.90749,-0.002 1.91316,0 2.86974,0 0.47829,0 1.00707,0.002 1.43486,0 0.605,-0.002 0.95658,-0.007 1.43487,-0.0102 0.95657,-0.007 1.74413,-0.015 2.86972,-0.0204 0.39797,-0.002 0.95658,0 1.43487,0 2.86973,0 5.73946,0 8.60919,0 0.47829,0 1.43486,-0.003 1.43486,0 0,0.003 -0.95657,0 -1.43486,0"
       id="path3926"
       inkscape:connector-curvature="0"
       sodipodi:nodetypes="csssssssscsssssssssssssssssssscsssccssssssssscsscsssssssssssscscsssc" />
    <path
       sodipodi:nodetypes="csssssssscsssssssssssssssssssscsssccssssssssscsscsssssssssssscscsssc"
       inkscape:connector-curvature="0"
       id="path3928"
       d="m 50.571427,526.13411 c 2.38095,0 4.76191,0 7.14286,0 0.47619,0 1.00265,0.009 1.42857,0 0.60234,-0.0121 1.26524,-0.0313 1.42857,-0.0576 0.2811,-0.0454 0,-9.96659 0,-11.42857 0,-0.47619 -0.15058,-0.97682 0,-1.42857 0.33672,-1.01016 1.17032,-1.82414 1.42857,-2.85715 0.461983,-1.84789 -0.60234,-3.90727 0,-5.71428 0.212963,-0.63888 1.215623,-0.7897 1.428573,-1.42857 0.30117,-0.90351 -0.42591,-2.00531 0,-2.85715 0.60234,-1.20467 1.90477,-1.90476 2.85715,-2.85714 0.47619,-0.47619 0.82623,-1.1274 1.42857,-1.42857 0.42592,-0.21296 0.95238,0 1.42857,0 0.95238,0 1.90476,0 2.85714,0 0.47619,0 1.03236,-0.26414 1.42857,0 1.12067,0.74711 1.90477,1.90476 2.85715,2.85714 0.47619,0.47619 1.1274,0.82623 1.42857,1.42857 0.26034,0.52068 0,6.31972 0,7.14286 0,5.2381 0,10.47619 0,15.71429 0,0.33947 -0.16009,2.95952 0,2.97244 1.08927,0.0879 3.75411,0.0576 5.71428,0.0576 0.95239,0 1.90477,0 2.85715,0 0.47619,0 1.03235,0.0107 1.42857,0 1.12066,-0.0301 1.65246,-0.091 2.85714,-0.1153 2.29362,-0.0463 5.56638,0.0696 7.14286,-0.0576 0.21296,-0.0172 0,-0.95238 0,-1.42857 0,-1.47806 -0.27215,-8.91141 0,-10 0.25825,-1.033 0.54261,-2.2665 1.42857,-2.85714 0.14625,-0.0975 4.90114,0 5.71429,0 0.95238,0 1.90476,0 2.85714,0 0.47619,0 1.00265,-0.21296 1.42857,0 0.60234,0.30116 1.1274,0.82623 1.42857,1.42857 0.16009,0.32018 0,5.37481 0,5.71428 0,2.38095 0,7.04678 0,7.14286 0,0.0512 -0.33672,0.0915 1.42857,0.1153 0.0649,8.7e-4 6.93751,0.004 7.14286,0 0.60234,-0.0121 0.82623,-0.0455 1.42857,-0.0576 0.85184,-0.0172 2.00531,0.0172 2.85714,0 0.60234,-0.0121 0.82624,-0.0455 1.42858,-0.0576 0.92803,-0.0187 6.23669,0.0183 7.14285,0 0.60234,-0.0122 0.7897,-1.21561 1.42857,-1.42857 0.90351,-0.30117 1.90477,0 2.85715,0 0.47619,0 1.00265,0.21296 1.42857,0 1.98291,-0.99146 1.42857,-2.54189 1.42857,-4.28572 0,-0.47619 -0.21296,-1.00265 0,-1.42857 0.30117,-0.60234 0.95238,-0.95238 1.42857,-1.42857 0,-0.95238 -0.30117,-1.95363 0,-2.85714 0.3752,-1.1256 5.02752,-4.34074 5.71429,-5.71429 0.21296,-0.42592 0,-0.95238 0,-1.42857 0.47619,-0.47619 1.1274,-0.82623 1.42857,-1.42857 0.21296,-0.42592 -0.47619,-1.42857 0,-1.42857 2.02864,0 1.42857,3.27001 1.42857,4.28571 0,1.16785 -0.24135,9.27596 0,10 0.42592,1.27776 2.2548,1.65247 2.85714,2.85715 0.46402,0.92803 -0.45308,4.36444 0,4.40101 0.60234,0.0486 2.25481,0.0667 2.85715,0.1153 0.21295,0.0172 -0.21296,0.0405 0,0.0577 0.30117,0.0243 0.95238,0.0384 1.42857,0.0576 0.47619,0.0192 0.75513,0.0576 1.42857,0.0576 0.5841,0 3.43609,-0.16152 4.28571,-0.17295 0.90351,-0.0121 1.90477,0 2.85715,0 0.47619,0 1.00265,0.009 1.42857,0 0.60234,-0.0121 0.95238,-0.0384 1.42857,-0.0576 0.95238,-0.0384 1.73648,-0.0851 2.85714,-0.1153 0.39622,-0.0107 0.95238,0 1.42857,0 2.85715,0 5.71429,0 8.57143,0 0.47619,0 1.42857,-0.0192 1.42857,0 0,0.0192 -0.95238,0 -1.42857,0"
       style="fill:none;stroke:#000000;stroke-width:1px;stroke-linecap:butt;stroke-linejoin:miter;stroke-opacity:1" />
    <text
       xml:space="preserve"
       style="font-size:20px;font-style:normal;font-variant:normal;font-weight:normal;font-stretch:normal;text-align:start;line-height:125%;letter-spacing:0px;word-spacing:0px;writing-mode:lr-tb;text-anchor:start;fill:#000000;fill-opacity:1;stroke:none;font-family:Sans;-inkscape-font-specification:Sans"
       x="190.57143"
       y="516.07648"
       id="text3930"
       sodipodi:linespacing="125%"><tspan
         sodipodi:role="line"
         id="tspan3932"
         x="190.57143"
         y="516.07648">0.6</tspan></text>
    <text
       xml:space="preserve"
       style="font-size:20px;font-style:normal;font-variant:normal;font-weight:normal;font-stretch:normal;text-align:start;line-height:125%;letter-spacing:0px;word-spacing:0px;writing-mode:lr-tb;text-anchor:start;fill:#000000;fill-opacity:1;stroke:none;font-family:Sans;-inkscape-font-specification:Sans"
       x="685.71429"
       y="516.07648"
       id="text3934"
       sodipodi:linespacing="125%"><tspan
         sodipodi:role="line"
         id="tspan3936"
         x="685.71429"
         y="516.07648">0.0</tspan></text>
    <text
       sodipodi:linespacing="125%"
       id="text3938"
       y="529.83374"
       x="459.08704"
       style="font-size:60.98732376px;font-style:normal;font-variant:normal;font-weight:normal;font-stretch:normal;text-align:start;line-height:125%;letter-spacing:0px;word-spacing:0px;writing-mode:lr-tb;text-anchor:start;fill:#000000;fill-opacity:1;stroke:none;font-family:Sans;-inkscape-font-specification:Sans"
       xml:space="preserve"><tspan
         y="529.83374"
         x="459.08704"
         id="tspan3940"
         sodipodi:role="line">→</tspan></text>
    <text
       xml:space="preserve"
       style="font-size:60.98732376px;font-style:normal;font-variant:normal;font-weight:normal;font-stretch:normal;text-align:start;line-height:125%;letter-spacing:0px;word-spacing:0px;writing-mode:lr-tb;text-anchor:start;fill:#000000;fill-opacity:1;stroke:none;font-family:Sans;-inkscape-font-specification:Sans"
       x="226.94418"
       y="525.54803"
       id="text3942"
       sodipodi:linespacing="125%"><tspan
         sodipodi:role="line"
         id="tspan3944"
         x="226.94418"
         y="525.54803">→</tspan></text>
    <rect
       y="541.79077"
       x="272.85715"
       height="51.42857"
       width="190"
       id="rect3946"
       style="opacity:0.68725867;color:#000000;fill:none;stroke:#000000;stroke-width:2.20000005;stroke-linecap:butt;stroke-linejoin:miter;stroke-miterlimit:4;stroke-opacity:1;stroke-dasharray:none;stroke-dashoffset:0;marker:none;visibility:visible;display:inline;overflow:visible;enable-background:accumulate" />
    <path
       sodipodi:nodetypes="csssssssscsssssssssssssssssssscsssccssssssssscsscsssssssssssscscsssc"
       inkscape:connector-curvature="0"
       id="path3948"
       d="m 551.13907,583.85142 c 2.39144,0 4.78289,0 7.17433,0 0.47828,0 1.00706,0.002 1.43486,0 0.60499,-0.002 1.27081,-0.006 1.43486,-0.0102 0.28234,-0.008 0,-1.75869 0,-2.01667 0,-0.084 -0.15124,-0.17237 0,-0.25209 0.33821,-0.17825 1.17548,-0.32189 1.43487,-0.50417 0.46401,-0.32608 -0.605,-0.68947 0,-1.00834 0.21389,-0.11273 1.22097,-0.13935 1.43486,-0.25208 0.3025,-0.15944 -0.42779,-0.35386 0,-0.50417 0.60499,-0.21258 1.91316,-0.33612 2.86974,-0.50417 0.47828,-0.084 0.82987,-0.19894 1.43486,-0.25209 0.4278,-0.0376 0.95658,0 1.43486,0 0.95658,0 1.91315,0 2.86973,0 0.47829,0 1.03691,-0.0466 1.43486,0 1.12561,0.13184 1.91317,0.33612 2.86974,0.50417 0.47829,0.084 1.13237,0.1458 1.43486,0.25209 0.26149,0.0919 0,1.11517 0,1.26042 0,0.92431 0,1.84862 0,2.77293 0,0.0599 -0.16079,0.52224 0,0.52452 1.09407,0.0155 3.77065,0.0102 5.73946,0.0102 0.95658,0 1.91316,0 2.86974,0 0.47828,0 1.03689,0.002 1.43486,0 1.1256,-0.005 1.65974,-0.016 2.86973,-0.0203 2.30372,-0.008 5.5909,0.0123 7.17432,-0.0102 0.2139,-0.003 0,-0.16805 0,-0.25208 0,-0.26082 -0.27334,-1.5725 0,-1.76459 0.25939,-0.18229 0.545,-0.39995 1.43487,-0.50417 0.14689,-0.0172 4.92273,0 5.73946,0 0.95658,0 1.91315,0 2.86973,0 0.47829,0 1.00707,-0.0376 1.43486,0 0.605,0.0531 1.13237,0.14579 1.43487,0.25208 0.16079,0.0565 0,0.94844 0,1.00834 0,0.42014 0,1.24347 0,1.26042 0,0.009 -0.33821,0.0162 1.43486,0.0204 0.0652,1.5e-4 6.96807,7.1e-4 7.17433,0 0.60499,-0.002 0.82987,-0.008 1.43486,-0.0102 0.85559,-0.003 2.01414,0.003 2.86973,0 0.60499,-0.002 0.82988,-0.008 1.43487,-0.0102 0.93212,-0.003 6.26417,0.003 7.17432,0 0.60499,-0.002 0.79318,-0.2145 1.43486,-0.25208 0.90749,-0.0531 1.91316,0 2.86974,0 0.47829,0 1.00707,0.0376 1.43486,0 1.99165,-0.17496 1.43487,-0.44854 1.43487,-0.75626 0,-0.084 -0.2139,-0.17693 0,-0.25208 0.30249,-0.10629 0.95657,-0.16806 1.43486,-0.25209 0,-0.16805 -0.3025,-0.34473 0,-0.50417 0.37685,-0.19862 5.04967,-0.76596 5.73946,-1.00834 0.2139,-0.0752 0,-0.16805 0,-0.25208 0.47829,-0.084 1.13237,-0.1458 1.43487,-0.25209 0.2139,-0.0752 -0.47829,-0.25208 0,-0.25208 2.03757,0 1.43486,0.57702 1.43486,0.75625 0,0.20608 -0.24241,1.63683 0,1.7646 0.4278,0.22547 2.26473,0.29159 2.86973,0.50417 0.46606,0.16376 -0.45508,0.77014 0,0.7766 0.60499,0.009 2.26474,0.0118 2.86974,0.0203 0.21388,0.003 -0.2139,0.007 0,0.0102 0.30249,0.004 0.95657,0.007 1.43486,0.0102 0.47829,0.003 0.75846,0.0102 1.43486,0.0102 0.58668,0 3.45123,-0.0285 4.30459,-0.0305 0.90749,-0.002 1.91316,0 2.86974,0 0.47829,0 1.00707,0.002 1.43486,0 0.605,-0.002 0.95658,-0.007 1.43487,-0.0102 0.95657,-0.007 1.74413,-0.015 2.86972,-0.0204 0.39797,-0.002 0.95658,0 1.43487,0 2.86973,0 5.73946,0 8.60919,0 0.47829,0 1.43486,-0.003 1.43486,0 0,0.003 -0.95657,0 -1.43486,0"
       style="fill:none;stroke:#000000;stroke-width:0.42099494px;stroke-linecap:butt;stroke-linejoin:miter;stroke-opacity:1" />
    <path
       style="fill:none;stroke:#000000;stroke-width:1px;stroke-linecap:butt;stroke-linejoin:miter;stroke-opacity:1"
       d="m 50.571427,584.70554 c 2.38095,0 4.76191,0 7.14286,0 0.47619,0 1.00265,0.009 1.42857,0 0.60234,-0.0121 1.26524,-0.0313 1.42857,-0.0576 0.2811,-0.0454 0,-9.96659 0,-11.42857 0,-0.47619 -0.15058,-0.97682 0,-1.42857 0.33672,-1.01016 1.17032,-1.82414 1.42857,-2.85715 0.461983,-1.84789 -0.60234,-3.90727 0,-5.71428 0.212963,-0.63888 1.215623,-0.7897 1.428573,-1.42857 0.30117,-0.90351 -0.42591,-2.00531 0,-2.85715 0.60234,-1.20467 1.90477,-1.90476 2.85715,-2.85714 0.47619,-0.47619 0.82623,-1.1274 1.42857,-1.42857 0.42592,-0.21296 0.95238,0 1.42857,0 0.95238,0 1.90476,0 2.85714,0 0.47619,0 1.03236,-0.26414 1.42857,0 1.12067,0.74711 1.90477,1.90476 2.85715,2.85714 0.47619,0.47619 1.1274,0.82623 1.42857,1.42857 0.26034,0.52068 0,6.31972 0,7.14286 0,5.2381 0,10.47619 0,15.71429 0,0.33947 -0.16009,2.95952 0,2.97244 1.08927,0.0879 3.75411,0.0576 5.71428,0.0576 0.95239,0 1.90477,0 2.85715,0 0.47619,0 1.03235,0.0107 1.42857,0 1.12066,-0.0301 1.65246,-0.091 2.85714,-0.1153 2.29362,-0.0463 5.56638,0.0696 7.14286,-0.0576 0.21296,-0.0172 0,-0.95238 0,-1.42857 0,-1.47806 -0.27215,-8.91141 0,-10 0.25825,-1.033 0.54261,-2.2665 1.42857,-2.85714 0.14625,-0.0975 4.90114,0 5.71429,0 0.95238,0 1.90476,0 2.85714,0 0.47619,0 1.00265,-0.21296 1.42857,0 0.60234,0.30116 1.1274,0.82623 1.42857,1.42857 0.16009,0.32018 0,5.37481 0,5.71428 0,2.38095 0,7.04678 0,7.14286 0,0.0512 -0.33672,0.0915 1.42857,0.1153 0.0649,8.7e-4 6.93751,0.004 7.14286,0 0.60234,-0.0121 0.82623,-0.0455 1.42857,-0.0576 0.85184,-0.0172 2.00531,0.0172 2.85714,0 0.60234,-0.0121 0.82624,-0.0455 1.42858,-0.0576 0.92803,-0.0187 6.23669,0.0183 7.14285,0 0.60234,-0.0122 0.7897,-1.21561 1.42857,-1.42857 0.90351,-0.30117 1.90477,0 2.85715,0 0.47619,0 1.00265,0.21296 1.42857,0 1.98291,-0.99146 1.42857,-2.54189 1.42857,-4.28572 0,-0.47619 -0.21296,-1.00265 0,-1.42857 0.30117,-0.60234 0.95238,-0.95238 1.42857,-1.42857 0,-0.95238 -0.30117,-1.95363 0,-2.85714 0.3752,-1.1256 5.02752,-4.34074 5.71429,-5.71429 0.21296,-0.42592 0,-0.95238 0,-1.42857 0.47619,-0.47619 1.1274,-0.82623 1.42857,-1.42857 0.21296,-0.42592 -0.47619,-1.42857 0,-1.42857 2.02864,0 1.42857,3.27001 1.42857,4.28571 0,1.16785 -0.24135,9.27596 0,10 0.42592,1.27776 2.2548,1.65247 2.85714,2.85715 0.46402,0.92803 -0.45308,4.36444 0,4.40101 0.60234,0.0486 2.25481,0.0667 2.85715,0.1153 0.21295,0.0172 -0.21296,0.0405 0,0.0577 0.30117,0.0243 0.95238,0.0384 1.42857,0.0576 0.47619,0.0192 0.75513,0.0576 1.42857,0.0576 0.5841,0 3.43609,-0.16152 4.28571,-0.17295 0.90351,-0.0121 1.90477,0 2.85715,0 0.47619,0 1.00265,0.009 1.42857,0 0.60234,-0.0121 0.95238,-0.0384 1.42857,-0.0576 0.95238,-0.0384 1.73648,-0.0851 2.85714,-0.1153 0.39622,-0.0107 0.95238,0 1.42857,0 2.85715,0 5.71429,0 8.57143,0 0.47619,0 1.42857,-0.0192 1.42857,0 0,0.0192 -0.95238,0 -1.42857,0"
       id="path3950"
       inkscape:connector-curvature="0"
       sodipodi:nodetypes="csssssssscsssssssssssssssssssscsssccssssssssscsscsssssssssssscscsssc" />
    <text
       sodipodi:linespacing="125%"
       id="text3952"
       y="574.64795"
       x="190.57143"
       style="font-size:20px;font-style:normal;font-variant:normal;font-weight:normal;font-stretch:normal;text-align:start;line-height:125%;letter-spacing:0px;word-spacing:0px;writing-mode:lr-tb;text-anchor:start;fill:#000000;fill-opacity:1;stroke:none;font-family:Sans;-inkscape-font-specification:Sans"
       xml:space="preserve"><tspan
         y="574.64795"
         x="190.57143"
         id="tspan3954"
         sodipodi:role="line">0.6</tspan></text>
    <text
       sodipodi:linespacing="125%"
       id="text3956"
       y="574.64795"
       x="685.71429"
       style="font-size:20px;font-style:normal;font-variant:normal;font-weight:normal;font-stretch:normal;text-align:start;line-height:125%;letter-spacing:0px;word-spacing:0px;writing-mode:lr-tb;text-anchor:start;fill:#000000;fill-opacity:1;stroke:none;font-family:Sans;-inkscape-font-specification:Sans"
       xml:space="preserve"><tspan
         y="574.64795"
         x="685.71429"
         id="tspan3958"
         sodipodi:role="line">0.0</tspan></text>
    <text
       xml:space="preserve"
       style="font-size:60.98732376px;font-style:normal;font-variant:normal;font-weight:normal;font-stretch:normal;text-align:start;line-height:125%;letter-spacing:0px;word-spacing:0px;writing-mode:lr-tb;text-anchor:start;fill:#000000;fill-opacity:1;stroke:none;font-family:Sans;-inkscape-font-specification:Sans"
       x="459.08704"
       y="588.40521"
       id="text3960"
       sodipodi:linespacing="125%"><tspan
         sodipodi:role="line"
         id="tspan3962"
         x="459.08704"
         y="588.40521">→</tspan></text>
    <text
       sodipodi:linespacing="125%"
       id="text3964"
       y="584.11945"
       x="226.94418"
       style="font-size:60.98732376px;font-style:normal;font-variant:normal;font-weight:normal;font-stretch:normal;text-align:start;line-height:125%;letter-spacing:0px;word-spacing:0px;writing-mode:lr-tb;text-anchor:start;fill:#000000;fill-opacity:1;stroke:none;font-family:Sans;-inkscape-font-specification:Sans"
       xml:space="preserve"><tspan
         y="584.11945"
         x="226.94418"
         id="tspan3966"
         sodipodi:role="line">→</tspan></text>
    <rect
       style="opacity:0.68725867;color:#000000;fill:none;stroke:#000000;stroke-width:2.20000005;stroke-linecap:butt;stroke-linejoin:miter;stroke-miterlimit:4;stroke-opacity:1;stroke-dasharray:none;stroke-dashoffset:0;marker:none;visibility:visible;display:inline;overflow:visible;enable-background:accumulate"
       id="rect3968"
       width="190"
       height="51.42857"
       x="272.85715"
       y="607.505" />
    <path
       style="fill:none;stroke:#000000;stroke-width:0.42099494px;stroke-linecap:butt;stroke-linejoin:miter;stroke-opacity:1"
       d="m 551.13907,649.56571 c 2.39144,0 4.78289,0 7.17433,0 0.47828,0 1.00706,0.002 1.43486,0 0.60499,-0.002 1.27081,-0.006 1.43486,-0.0102 0.28234,-0.008 0,-1.75869 0,-2.01667 0,-0.084 -0.15124,-0.17237 0,-0.25209 0.33821,-0.17825 1.17548,-0.32189 1.43487,-0.50417 0.46401,-0.32608 -0.605,-0.68947 0,-1.00834 0.21389,-0.11273 1.22097,-0.13935 1.43486,-0.25208 0.3025,-0.15944 -0.42779,-0.35386 0,-0.50417 0.60499,-0.21258 1.91316,-0.33612 2.86974,-0.50417 0.47828,-0.084 0.82987,-0.19894 1.43486,-0.25209 0.4278,-0.0376 0.95658,0 1.43486,0 0.95658,0 1.91315,0 2.86973,0 0.47829,0 1.03691,-0.0466 1.43486,0 1.12561,0.13184 1.91317,0.33612 2.86974,0.50417 0.47829,0.084 1.13237,0.1458 1.43486,0.25209 0.26149,0.0919 0,1.11517 0,1.26042 0,0.92431 0,1.84862 0,2.77293 0,0.0599 -0.16079,0.52224 0,0.52452 1.09407,0.0155 3.77065,0.0102 5.73946,0.0102 0.95658,0 1.91316,0 2.86974,0 0.47828,0 1.03689,0.002 1.43486,0 1.1256,-0.005 1.65974,-0.016 2.86973,-0.0203 2.30372,-0.008 5.5909,0.0123 7.17432,-0.0102 0.2139,-0.003 0,-0.16805 0,-0.25208 0,-0.26082 -0.27334,-1.5725 0,-1.76459 0.25939,-0.18229 0.545,-0.39995 1.43487,-0.50417 0.14689,-0.0172 4.92273,0 5.73946,0 0.95658,0 1.91315,0 2.86973,0 0.47829,0 1.00707,-0.0376 1.43486,0 0.605,0.0531 1.13237,0.14579 1.43487,0.25208 0.16079,0.0565 0,0.94844 0,1.00834 0,0.42014 0,1.24347 0,1.26042 0,0.009 -0.33821,0.0162 1.43486,0.0204 0.0652,1.5e-4 6.96807,7.1e-4 7.17433,0 0.60499,-0.002 0.82987,-0.008 1.43486,-0.0102 0.85559,-0.003 2.01414,0.003 2.86973,0 0.60499,-0.002 0.82988,-0.008 1.43487,-0.0102 0.93212,-0.003 6.26417,0.003 7.17432,0 0.60499,-0.002 0.79318,-0.2145 1.43486,-0.25208 0.90749,-0.0531 1.91316,0 2.86974,0 0.47829,0 1.00707,0.0376 1.43486,0 1.99165,-0.17496 1.43487,-0.44854 1.43487,-0.75626 0,-0.084 -0.2139,-0.17693 0,-0.25208 0.30249,-0.10629 0.95657,-0.16806 1.43486,-0.25209 0,-0.16805 -0.3025,-0.34473 0,-0.50417 0.37685,-0.19862 5.04967,-0.76596 5.73946,-1.00834 0.2139,-0.0752 0,-0.16805 0,-0.25208 0.47829,-0.084 1.13237,-0.1458 1.43487,-0.25209 0.2139,-0.0752 -0.47829,-0.25208 0,-0.25208 2.03757,0 1.43486,0.57702 1.43486,0.75625 0,0.20608 -0.24241,1.63683 0,1.7646 0.4278,0.22547 2.26473,0.29159 2.86973,0.50417 0.46606,0.16376 -0.45508,0.77014 0,0.7766 0.60499,0.009 2.26474,0.0118 2.86974,0.0203 0.21388,0.003 -0.2139,0.007 0,0.0102 0.30249,0.004 0.95657,0.007 1.43486,0.0102 0.47829,0.003 0.75846,0.0102 1.43486,0.0102 0.58668,0 3.45123,-0.0285 4.30459,-0.0305 0.90749,-0.002 1.91316,0 2.86974,0 0.47829,0 1.00707,0.002 1.43486,0 0.605,-0.002 0.95658,-0.007 1.43487,-0.0102 0.95657,-0.007 1.74413,-0.015 2.86972,-0.0204 0.39797,-0.002 0.95658,0 1.43487,0 2.86973,0 5.73946,0 8.60919,0 0.47829,0 1.43486,-0.003 1.43486,0 0,0.003 -0.95657,0 -1.43486,0"
       id="path3970"
       inkscape:connector-curvature="0"
       sodipodi:nodetypes="csssssssscsssssssssssssssssssscsssccssssssssscsscsssssssssssscscsssc" />
    <path
       sodipodi:nodetypes="csssssssscsssssssssssssssssssscsssccssc"
       inkscape:connector-curvature="0"
       id="path3972"
       d="m 50.571427,650.41983 c 2.38095,0 4.76191,0 7.14286,0 0.47619,0 1.00265,0.009 1.42857,0 0.60234,-0.0121 1.26524,-0.0313 1.42857,-0.0576 0.2811,-0.0454 0,-9.96659 0,-11.42857 0,-0.47619 -0.15058,-0.97682 0,-1.42857 0.33672,-1.01016 1.17032,-1.82414 1.42857,-2.85715 0.461983,-1.84789 -0.60234,-3.90727 0,-5.71428 0.212963,-0.63888 1.215623,-0.7897 1.428573,-1.42857 0.30117,-0.90351 -0.42591,-2.00531 0,-2.85715 0.60234,-1.20467 1.90477,-1.90476 2.85715,-2.85714 0.47619,-0.47619 0.82623,-1.1274 1.42857,-1.42857 0.42592,-0.21296 0.95238,0 1.42857,0 0.95238,0 1.90476,0 2.85714,0 0.47619,0 1.03236,-0.26414 1.42857,0 1.12067,0.74711 1.90477,1.90476 2.85715,2.85714 0.47619,0.47619 1.1274,0.82623 1.42857,1.42857 0.26034,0.52068 0,6.31972 0,7.14286 0,5.2381 0,10.47619 0,15.71429 0,0.33947 -0.16009,2.95952 0,2.97244 1.08927,0.0879 3.75411,0.0576 5.71428,0.0576 0.95239,0 1.90477,0 2.85715,0 0.47619,0 1.03235,0.0107 1.42857,0 1.12066,-0.0301 1.65246,-0.091 2.85714,-0.1153 2.29362,-0.0463 5.56638,0.0696 7.14286,-0.0576 0.21296,-0.0172 0,-0.95238 0,-1.42857 0,-1.47806 -0.27215,-8.91141 0,-10 0.25825,-1.033 0.54261,-2.2665 1.42857,-2.85714 0.14625,-0.0975 4.90114,0 5.71429,0 0.95238,0 1.90476,0 2.85714,0 0.47619,0 1.00265,-0.21296 1.42857,0 0.60234,0.30116 1.1274,0.82623 1.42857,1.42857 0.16009,0.32018 0,5.37481 0,5.71428 0,2.38095 0,7.04678 0,7.14286 0,0.0512 -0.33672,0.0915 1.42857,0.1153 0.0649,8.7e-4 6.93751,0.004 7.14286,0 0.60234,-0.0121 0.82623,-0.0455 1.42857,-0.0576 0.85184,-0.0172 2.00531,0.0172 2.85714,0 0.60234,-0.0121 0.82624,-0.0455 1.42858,-0.0576"
       style="fill:none;stroke:#000000;stroke-width:1px;stroke-linecap:butt;stroke-linejoin:miter;stroke-opacity:1" />
    <text
       xml:space="preserve"
       style="font-size:20px;font-style:normal;font-variant:normal;font-weight:normal;font-stretch:normal;text-align:start;line-height:125%;letter-spacing:0px;word-spacing:0px;writing-mode:lr-tb;text-anchor:start;fill:#fc0909;fill-opacity:1;stroke:none;font-family:Sans;-inkscape-font-specification:Sans"
       x="190.57143"
       y="640.36218"
       id="text3974"
       sodipodi:linespacing="125%"><tspan
         sodipodi:role="line"
         id="tspan3976"
         x="190.57143"
         y="640.36218">0.0</tspan></text>
    <text
       xml:space="preserve"
       style="font-size:20px;font-style:normal;font-variant:normal;font-weight:normal;font-stretch:normal;text-align:start;line-height:125%;letter-spacing:0px;word-spacing:0px;writing-mode:lr-tb;text-anchor:start;fill:#000000;fill-opacity:1;stroke:none;font-family:Sans;-inkscape-font-specification:Sans"
       x="685.71429"
       y="640.36218"
       id="text3978"
       sodipodi:linespacing="125%"><tspan
         sodipodi:role="line"
         id="tspan3980"
         x="685.71429"
         y="640.36218">0.0</tspan></text>
    <text
       sodipodi:linespacing="125%"
       id="text3982"
       y="654.11951"
       x="459.08704"
       style="font-size:60.98732376px;font-style:normal;font-variant:normal;font-weight:normal;font-stretch:normal;text-align:start;line-height:125%;letter-spacing:0px;word-spacing:0px;writing-mode:lr-tb;text-anchor:start;fill:#000000;fill-opacity:1;stroke:none;font-family:Sans;-inkscape-font-specification:Sans"
       xml:space="preserve"><tspan
         y="654.11951"
         x="459.08704"
         id="tspan3984"
         sodipodi:role="line">→</tspan></text>
    <text
       xml:space="preserve"
       style="font-size:60.98732376px;font-style:normal;font-variant:normal;font-weight:normal;font-stretch:normal;text-align:start;line-height:125%;letter-spacing:0px;word-spacing:0px;writing-mode:lr-tb;text-anchor:start;fill:#000000;fill-opacity:1;stroke:none;font-family:Sans;-inkscape-font-specification:Sans"
       x="226.94418"
       y="649.83374"
       id="text3986"
       sodipodi:linespacing="125%"><tspan
         sodipodi:role="line"
         id="tspan3988"
         x="226.94418"
         y="649.83374">→</tspan></text>
    <rect
       y="664.64789"
       x="272.85715"
       height="51.42857"
       width="190"
       id="rect3990"
       style="opacity:0.68725867;color:#000000;fill:none;stroke:#000000;stroke-width:2.20000005;stroke-linecap:butt;stroke-linejoin:miter;stroke-miterlimit:4;stroke-opacity:1;stroke-dasharray:none;stroke-dashoffset:0;marker:none;visibility:visible;display:inline;overflow:visible;enable-background:accumulate" />
    <path
       sodipodi:nodetypes="csssssssscsssssssssssssssssssscsssccssssssssscsscsssssssssssscscsssc"
       inkscape:connector-curvature="0"
       id="path3992"
       d="m 551.13907,706.70857 c 2.39144,0 4.78289,0 7.17433,0 0.47828,0 1.00706,0.002 1.43486,0 0.60499,-0.002 1.27081,-0.006 1.43486,-0.0102 0.28234,-0.008 0,-1.75869 0,-2.01667 0,-0.084 -0.15124,-0.17237 0,-0.25209 0.33821,-0.17825 1.17548,-0.32189 1.43487,-0.50417 0.46401,-0.32608 -0.605,-0.68947 0,-1.00834 0.21389,-0.11273 1.22097,-0.13935 1.43486,-0.25208 0.3025,-0.15944 -0.42779,-0.35386 0,-0.50417 0.60499,-0.21258 1.91316,-0.33612 2.86974,-0.50417 0.47828,-0.084 0.82987,-0.19894 1.43486,-0.25209 0.4278,-0.0376 0.95658,0 1.43486,0 0.95658,0 1.91315,0 2.86973,0 0.47829,0 1.03691,-0.0466 1.43486,0 1.12561,0.13184 1.91317,0.33612 2.86974,0.50417 0.47829,0.084 1.13237,0.1458 1.43486,0.25209 0.26149,0.0919 0,1.11517 0,1.26042 0,0.92431 0,1.84862 0,2.77293 0,0.0599 -0.16079,0.52224 0,0.52452 1.09407,0.0155 3.77065,0.0102 5.73946,0.0102 0.95658,0 1.91316,0 2.86974,0 0.47828,0 1.03689,0.002 1.43486,0 1.1256,-0.005 1.65974,-0.016 2.86973,-0.0203 2.30372,-0.008 5.5909,0.0123 7.17432,-0.0102 0.2139,-0.003 0,-0.16805 0,-0.25208 0,-0.26082 -0.27334,-1.5725 0,-1.76459 0.25939,-0.18229 0.545,-0.39995 1.43487,-0.50417 0.14689,-0.0172 4.92273,0 5.73946,0 0.95658,0 1.91315,0 2.86973,0 0.47829,0 1.00707,-0.0376 1.43486,0 0.605,0.0531 1.13237,0.14579 1.43487,0.25208 0.16079,0.0565 0,0.94844 0,1.00834 0,0.42014 0,1.24347 0,1.26042 0,0.009 -0.33821,0.0162 1.43486,0.0204 0.0652,1.5e-4 6.96807,7.1e-4 7.17433,0 0.60499,-0.002 0.82987,-0.008 1.43486,-0.0102 0.85559,-0.003 2.01414,0.003 2.86973,0 0.60499,-0.002 0.82988,-0.008 1.43487,-0.0102 0.93212,-0.003 6.26417,0.003 7.17432,0 0.60499,-0.002 0.79318,-0.2145 1.43486,-0.25208 0.90749,-0.0531 1.91316,0 2.86974,0 0.47829,0 1.00707,0.0376 1.43486,0 1.99165,-0.17496 1.43487,-0.44854 1.43487,-0.75626 0,-0.084 -0.2139,-0.17693 0,-0.25208 0.30249,-0.10629 0.95657,-0.16806 1.43486,-0.25209 0,-0.16805 -0.3025,-0.34473 0,-0.50417 0.37685,-0.19862 5.04967,-0.76596 5.73946,-1.00834 0.2139,-0.0752 0,-0.16805 0,-0.25208 0.47829,-0.084 1.13237,-0.1458 1.43487,-0.25209 0.2139,-0.0752 -0.47829,-0.25208 0,-0.25208 2.03757,0 1.43486,0.57702 1.43486,0.75625 0,0.20608 -0.24241,1.63683 0,1.7646 0.4278,0.22547 2.26473,0.29159 2.86973,0.50417 0.46606,0.16376 -0.45508,0.77014 0,0.7766 0.60499,0.009 2.26474,0.0118 2.86974,0.0203 0.21388,0.003 -0.2139,0.007 0,0.0102 0.30249,0.004 0.95657,0.007 1.43486,0.0102 0.47829,0.003 0.75846,0.0102 1.43486,0.0102 0.58668,0 3.45123,-0.0285 4.30459,-0.0305 0.90749,-0.002 1.91316,0 2.86974,0 0.47829,0 1.00707,0.002 1.43486,0 0.605,-0.002 0.95658,-0.007 1.43487,-0.0102 0.95657,-0.007 1.74413,-0.015 2.86972,-0.0204 0.39797,-0.002 0.95658,0 1.43487,0 2.86973,0 5.73946,0 8.60919,0 0.47829,0 1.43486,-0.003 1.43486,0 0,0.003 -0.95657,0 -1.43486,0"
       style="fill:none;stroke:#000000;stroke-width:0.42099494px;stroke-linecap:butt;stroke-linejoin:miter;stroke-opacity:1" />
    <path
       style="fill:none;stroke:#000000;stroke-width:1px;stroke-linecap:butt;stroke-linejoin:miter;stroke-opacity:1"
       d="m 50.571427,707.56269 c 2.38095,0 4.76191,0 7.14286,0 0.47619,0 1.00265,0.009 1.42857,0 0.60234,-0.0121 1.26524,-0.0313 1.42857,-0.0576 0.2811,-0.0454 0,-9.96659 0,-11.42857 0,-0.47619 -0.15058,-0.97682 0,-1.42857 0.33672,-1.01016 1.17032,-1.82414 1.42857,-2.85715 0.461983,-1.84789 -0.60234,-3.90727 0,-5.71428 0.212963,-0.63888 1.215623,-0.7897 1.428573,-1.42857 0.30117,-0.90351 -0.42591,-2.00531 0,-2.85715 0.60234,-1.20467 1.90477,-1.90476 2.85715,-2.85714 0.47619,-0.47619 0.82623,-1.1274 1.42857,-1.42857 0.42592,-0.21296 0.95238,0 1.42857,0 0.95238,0 1.90476,0 2.85714,0 0.47619,0 1.03236,-0.26414 1.42857,0 1.12067,0.74711 1.90477,1.90476 2.85715,2.85714 0.47619,0.47619 1.1274,0.82623 1.42857,1.42857 0.26034,0.52068 0,6.31972 0,7.14286 0,5.2381 0,10.47619 0,15.71429 0,0.33947 -0.16009,2.95952 0,2.97244 1.08927,0.0879 3.75411,0.0576 5.71428,0.0576 0.95239,0 1.90477,0 2.85715,0 0.47619,0 1.03235,0.0107 1.42857,0 1.12066,-0.0301 1.65246,-0.091 2.85714,-0.1153 2.29362,-0.0463 5.56638,0.0696 7.14286,-0.0576 0.21296,-0.0172 0,-0.95238 0,-1.42857 0,-1.47806 -0.27215,-8.91141 0,-10 0.25825,-1.033 0.54261,-2.2665 1.42857,-2.85714 0.14625,-0.0975 4.90114,0 5.71429,0 0.95238,0 1.90476,0 2.85714,0 0.47619,0 1.00265,-0.21296 1.42857,0 0.60234,0.30116 1.1274,0.82623 1.42857,1.42857 0.16009,0.32018 0,5.37481 0,5.71428 0,2.38095 0,7.04678 0,7.14286 0,0.0512 -0.33672,0.0915 1.42857,0.1153 0.0649,8.7e-4 6.93751,0.004 7.14286,0 0.60234,-0.0121 0.82623,-0.0455 1.42857,-0.0576 0.85184,-0.0172 2.00531,0.0172 2.85714,0 0.60234,-0.0121 0.82624,-0.0455 1.42858,-0.0576 0.92803,-0.0187 6.23669,0.0183 7.14285,0 0.60234,-0.0122 0.7897,-1.21561 1.42857,-1.42857 0.90351,-0.30117 1.90477,0 2.85715,0 0.47619,0 1.00265,0.21296 1.42857,0 1.98291,-0.99146 1.42857,-2.54189 1.42857,-4.28572 0,-0.47619 -0.21296,-1.00265 0,-1.42857 0.30117,-0.60234 0.95238,-0.95238 1.42857,-1.42857 0,-0.95238 -0.30117,-1.95363 0,-2.85714 0.3752,-1.1256 5.02752,-4.34074 5.71429,-5.71429 0.21296,-0.42592 0,-0.95238 0,-1.42857 0.47619,-0.47619 1.1274,-0.82623 1.42857,-1.42857 0.21296,-0.42592 -0.47619,-1.42857 0,-1.42857 2.02864,0 1.42857,3.27001 1.42857,4.28571 0,1.16785 -0.24135,9.27596 0,10 0.42592,1.27776 2.2548,1.65247 2.85714,2.85715 0.46402,0.92803 -0.45308,4.36444 0,4.40101 0.60234,0.0486 2.25481,0.0667 2.85715,0.1153 0.21295,0.0172 -0.21296,0.0405 0,0.0577 0.30117,0.0243 0.95238,0.0384 1.42857,0.0576 0.47619,0.0192 0.75513,0.0576 1.42857,0.0576 0.5841,0 3.43609,-0.16152 4.28571,-0.17295 0.90351,-0.0121 1.90477,0 2.85715,0 0.47619,0 1.00265,0.009 1.42857,0 0.60234,-0.0121 0.95238,-0.0384 1.42857,-0.0576 0.95238,-0.0384 1.73648,-0.0851 2.85714,-0.1153 0.39622,-0.0107 0.95238,0 1.42857,0 2.85715,0 5.71429,0 8.57143,0 0.47619,0 1.42857,-0.0192 1.42857,0 0,0.0192 -0.95238,0 -1.42857,0"
       id="path3994"
       inkscape:connector-curvature="0"
       sodipodi:nodetypes="csssssssscsssssssssssssssssssscsssccssssssssscsscsssssssssssscscsssc" />
    <text
       sodipodi:linespacing="125%"
       id="text3996"
       y="697.50507"
       x="190.57143"
       style="font-size:20px;font-style:normal;font-variant:normal;font-weight:normal;font-stretch:normal;text-align:start;line-height:125%;letter-spacing:0px;word-spacing:0px;writing-mode:lr-tb;text-anchor:start;fill:#000000;fill-opacity:1;stroke:none;font-family:Sans;-inkscape-font-specification:Sans"
       xml:space="preserve"><tspan
         y="697.50507"
         x="190.57143"
         id="tspan3998"
         sodipodi:role="line">0.6</tspan></text>
    <text
       sodipodi:linespacing="125%"
       id="text4000"
       y="697.50507"
       x="685.71429"
       style="font-size:20px;font-style:normal;font-variant:normal;font-weight:normal;font-stretch:normal;text-align:start;line-height:125%;letter-spacing:0px;word-spacing:0px;writing-mode:lr-tb;text-anchor:start;fill:#000000;fill-opacity:1;stroke:none;font-family:Sans;-inkscape-font-specification:Sans"
       xml:space="preserve"><tspan
         y="697.50507"
         x="685.71429"
         id="tspan4002"
         sodipodi:role="line">0.0</tspan></text>
    <text
       xml:space="preserve"
       style="font-size:60.98732376px;font-style:normal;font-variant:normal;font-weight:normal;font-stretch:normal;text-align:start;line-height:125%;letter-spacing:0px;word-spacing:0px;writing-mode:lr-tb;text-anchor:start;fill:#000000;fill-opacity:1;stroke:none;font-family:Sans;-inkscape-font-specification:Sans"
       x="459.08704"
       y="711.26239"
       id="text4004"
       sodipodi:linespacing="125%"><tspan
         sodipodi:role="line"
         id="tspan4006"
         x="459.08704"
         y="711.26239">→</tspan></text>
    <text
       sodipodi:linespacing="125%"
       id="text4008"
       y="706.97662"
       x="226.94418"
       style="font-size:60.98732376px;font-style:normal;font-variant:normal;font-weight:normal;font-stretch:normal;text-align:start;line-height:125%;letter-spacing:0px;word-spacing:0px;writing-mode:lr-tb;text-anchor:start;fill:#000000;fill-opacity:1;stroke:none;font-family:Sans;-inkscape-font-specification:Sans"
       xml:space="preserve"><tspan
         y="706.97662"
         x="226.94418"
         id="tspan4010"
         sodipodi:role="line">→</tspan></text>
    <path
       style="fill:none;stroke:#000000;stroke-width:1px;stroke-linecap:butt;stroke-linejoin:miter;stroke-opacity:1"
       d="m 176.7767,649.12602 c -3.49702,0 -4.99388,0 -7.57615,0 -0.28191,0 -2.29417,0.0771 -2.52538,0 -1.09544,-0.36515 -0.25362,-1.77102 -0.50508,-2.52538 -0.11904,-0.35715 -0.33671,-0.67344 -0.50507,-1.01016"
       id="path4016"
       inkscape:connector-curvature="0" />
    <path
       style="fill:none;stroke:#000000;stroke-width:1;stroke-linecap:butt;stroke-linejoin:miter;stroke-miterlimit:4;stroke-opacity:1;stroke-dasharray:1, 3;stroke-dashoffset:0;marker-start:none"
       d="m 124.75384,649.6311 41.92133,0"
       id="path4018"
       inkscape:connector-curvature="0" />
    <text
       xml:space="preserve"
       style="font-size:9.04666233px;font-style:normal;font-variant:normal;font-weight:normal;font-stretch:normal;text-align:start;line-height:125%;letter-spacing:0px;word-spacing:0px;writing-mode:lr-tb;text-anchor:start;fill:#000000;fill-opacity:1;stroke:none;font-family:Sans;-inkscape-font-specification:Sans"
       x="130.05597"
       y="621.61115"
       id="text4200"
       sodipodi:linespacing="125%"><tspan
         sodipodi:role="line"
         id="tspan4202"
         x="130.05597"
         y="621.61115">lost</tspan><tspan
         sodipodi:role="line"
         x="130.05597"
         y="632.91949"
         id="tspan4204">for</tspan><tspan
         sodipodi:role="line"
         x="130.05597"
         y="644.22778"
         id="tspan4206">800ms</tspan></text>
    <text
       xml:space="preserve"
       style="font-size:14.09543037px;font-style:normal;font-variant:normal;font-weight:normal;font-stretch:normal;text-align:start;line-height:125%;letter-spacing:0px;word-spacing:0px;writing-mode:lr-tb;text-anchor:start;fill:#828282;fill-opacity:1;stroke:none;font-family:Sans;-inkscape-font-specification:Sans"
       x="230.50745"
       y="33.590374"
       id="text4208"
       sodipodi:linespacing="125%"><tspan
         sodipodi:role="line"
         id="tspan4210"
         x="230.50745"
         y="33.590374">(click a line to see the patches)</tspan></text>
    <text
       sodipodi:linespacing="125%"
       id="text4212"
       y="50.762974"
       x="231.51759"
       style="font-size:14.09543037px;font-style:normal;font-variant:normal;font-weight:normal;font-stretch:normal;text-align:start;line-height:125%;letter-spacing:0px;word-spacing:0px;writing-mode:lr-tb;text-anchor:start;fill:#828282;fill-opacity:1;stroke:none;font-family:Sans;-inkscape-font-specification:Sans"
       xml:space="preserve"><tspan
         y="50.762974"
         x="231.51759"
         id="tspan4214"
         sodipodi:role="line">(click a service to go to its page)</tspan></text>
    <text
       xml:space="preserve"
       style="font-size:20px;font-style:normal;font-variant:normal;font-weight:normal;font-stretch:normal;text-align:start;line-height:125%;letter-spacing:0px;word-spacing:0px;writing-mode:lr-tb;text-anchor:start;fill:#000000;fill-opacity:1;stroke:none;font-family:Sans;-inkscape-font-specification:Sans"
       x="285.87317"
       y="285.9762"
       id="text4216"
       sodipodi:linespacing="125%"><tspan
         sodipodi:role="line"
         id="tspan4218"
         x="285.87317"
         y="285.9762">plus  </tspan></text>
    <path
       style="fill:none;stroke:#000000;stroke-width:1px;stroke-linecap:butt;stroke-linejoin:miter;stroke-opacity:1"
       d="m 27.142857,743.21933 698.571433,0"
       id="path4220"
       inkscape:connector-curvature="0" />
    <text
       xml:space="preserve"
       style="font-size:20px;font-style:normal;font-variant:normal;font-weight:normal;font-stretch:normal;text-align:start;line-height:125%;letter-spacing:0px;word-spacing:0px;writing-mode:lr-tb;text-anchor:start;fill:#000000;fill-opacity:1;stroke:none;font-family:Sans;-inkscape-font-specification:Sans"
       x="40"
       y="781.79077"
       id="text4222"
       sodipodi:linespacing="125%"><tspan
         sodipodi:role="line"
         id="tspan4224"
         x="40"
         y="781.79077">patch list</tspan></text>
    <text
       xml:space="preserve"
       style="font-size:20px;font-style:normal;font-variant:normal;font-weight:normal;font-stretch:normal;text-align:start;line-height:125%;letter-spacing:0px;word-spacing:0px;writing-mode:lr-tb;text-anchor:start;fill:#000000;fill-opacity:1;stroke:none;font-family:Sans;-inkscape-font-specification:Sans"
       x="55.714283"
       y="820.36218"
       id="text4226"
       sodipodi:linespacing="125%"><tspan
         sodipodi:role="line"
         x="55.714283"
         y="820.36218"
         id="tspan4254">filter: by service, by type, no window pos, by groups of edits in time</tspan></text>
    <text
       xml:space="preserve"
       style="font-size:17.910532px;font-style:normal;font-variant:normal;font-weight:normal;font-stretch:normal;text-align:start;line-height:125%;letter-spacing:0px;word-spacing:0px;writing-mode:lr-tb;text-anchor:start;fill:#000000;fill-opacity:1;stroke:none;font-family:Sans;-inkscape-font-specification:Sans"
       x="110.31493"
       y="787.10852"
       id="text4230"
       sodipodi:linespacing="125%"
       transform="scale(0.89552663,1.1166614)"><tspan
         sodipodi:role="line"
         id="tspan4232"
         x="110.31493"
         y="787.10852">curvecalc (default session) changed currentSong from song12 to song3 [undo]</tspan></text>
    <text
       xml:space="preserve"
       style="font-size:20px;font-style:normal;font-variant:normal;font-weight:normal;font-stretch:normal;text-align:start;line-height:125%;letter-spacing:0px;word-spacing:0px;writing-mode:lr-tb;text-anchor:start;fill:#000000;fill-opacity:1;stroke:none;font-family:Sans;-inkscape-font-specification:Sans"
       x="49.999992"
       y="84.505035"
       id="text4234"
       sodipodi:linespacing="125%"><tspan
         sodipodi:role="line"
         id="tspan4236"
         x="49.999992"
         y="84.505035">Recent disk files:</tspan></text>
    <text
       xml:space="preserve"
       style="font-size:16.06161499px;font-style:normal;font-variant:normal;font-weight:normal;font-stretch:normal;text-align:start;line-height:125%;letter-spacing:0px;word-spacing:0px;writing-mode:lr-tb;text-anchor:start;fill:#000000;fill-opacity:1;stroke:none;font-family:Sans;-inkscape-font-specification:Sans"
       x="85.061172"
       y="109.1338"
       id="text4238"
       sodipodi:linespacing="125%"><tspan
         sodipodi:role="line"
         id="tspan4240"
         x="85.061172"
         y="109.1338">sub/house.n3</tspan></text>
    <text
       xml:space="preserve"
       style="font-size:16.06161499px;font-style:normal;font-variant:normal;font-weight:normal;font-stretch:normal;text-align:start;line-height:125%;letter-spacing:0px;word-spacing:0px;writing-mode:lr-tb;text-anchor:start;fill:#000000;fill-opacity:1;stroke:none;font-family:Sans;-inkscape-font-specification:Sans"
       x="369.24503"
       y="107.07479"
       id="text4242"
       sodipodi:linespacing="125%"><tspan
         sodipodi:role="line"
         id="tspan4244"
         x="369.24503"
         y="107.07479">pending changes...</tspan></text>
    <text
       xml:space="preserve"
       style="font-size:16.06161499px;font-style:normal;font-variant:normal;font-weight:normal;font-stretch:normal;text-align:start;line-height:125%;letter-spacing:0px;word-spacing:0px;writing-mode:lr-tb;text-anchor:start;fill:#000000;fill-opacity:1;stroke:none;font-family:Sans;-inkscape-font-specification:Sans"
       x="84.269585"
       y="130.45827"
       id="text4246"
       sodipodi:linespacing="125%"><tspan
         sodipodi:role="line"
         id="tspan4248"
         x="84.269585"
         y="130.45827">session/curvecalc/default.n3</tspan></text>
    <text
       xml:space="preserve"
       style="font-size:16.06161499px;font-style:normal;font-variant:normal;font-weight:normal;font-stretch:normal;text-align:start;line-height:125%;letter-spacing:0px;word-spacing:0px;writing-mode:lr-tb;text-anchor:start;fill:#000000;fill-opacity:1;stroke:none;font-family:Sans;-inkscape-font-specification:Sans"
       x="370.63519"
       y="129.64703"
       id="text4250"
       sodipodi:linespacing="125%"><tspan
         sodipodi:role="line"
         id="tspan4252"
         x="370.63519"
         y="129.64703">wrote at 17:49:03</tspan></text>
    <text
       xml:space="preserve"
       style="font-size:20px;font-style:normal;font-variant:normal;font-weight:normal;font-stretch:normal;text-align:start;line-height:125%;letter-spacing:0px;word-spacing:0px;writing-mode:lr-tb;text-anchor:start;fill:#000000;fill-opacity:1;stroke:none;font-family:Sans;-inkscape-font-specification:Sans"
       x="32.857143"
       y="878.07648"
       id="text4258"
       sodipodi:linespacing="125%"><tspan
         sodipodi:role="line"
         id="tspan4260"
         x="32.857143"
         y="878.07648">Patch:</tspan></text>
    <text
       xml:space="preserve"
       style="font-size:16.64866638px;font-style:normal;font-variant:normal;font-weight:normal;font-stretch:normal;text-align:start;line-height:125%;letter-spacing:0px;word-spacing:0px;writing-mode:lr-tb;text-anchor:start;fill:#000000;fill-opacity:1;stroke:none;font-family:Sans;-inkscape-font-specification:Sans"
       x="759.07056"
       y="201.24452"
       id="text4262"
       sodipodi:linespacing="125%"><tspan
         sodipodi:role="line"
         id="tspan4264"
         x="759.07056"
         y="201.24452">patch/sec may be an odd measure</tspan><tspan
         sodipodi:role="line"
         x="759.07056"
         y="222.05534"
         id="tspan4266">since rdfdb can combine patches</tspan><tspan
         sodipodi:role="line"
         x="759.07056"
         y="242.8662"
         id="tspan4268">and make numbers that don't add up. </tspan><tspan
         sodipodi:role="line"
         x="759.07056"
         y="263.677"
         id="tspan4270">But they do correspond to successful</tspan><tspan
         sodipodi:role="line"
         x="759.07056"
         y="284.48785"
         id="tspan4272">messages between nodes which is useful</tspan></text>
  </g>
</svg>
